<svg width="130" height="120" viewBox="0 0 130 120" fill="none" xmlns="http://www.w3.org/2000/svg">
<g clip-path="url(#clip0_46_582)">
<path d="M117.213 62.4499C117.23 77.2987 111.814 91.5761 102.104 102.281C101.519 102.931 100.918 103.564 100.301 104.183C99.3608 105.13 98.3892 106.041 97.3861 106.915C88.0018 115.109 76.2865 119.713 64.1302 119.985C63.7251 119.995 63.3186 120 62.9105 120C53.2155 120 41.0216 114.512 29.9557 106.915C29.0401 106.287 28.1328 105.644 27.2335 104.986C26.8132 104.682 26.3949 104.373 25.9787 104.06C21.7107 100.866 17.6595 97.3583 13.855 93.5632C11.3641 91.0857 9.02828 88.4387 6.86241 85.6391C-1.64033 74.524 -3.51573 64.5087 8.60637 62.4499C10.0416 62.207 11.4345 61.9473 12.7851 61.6708C14.7415 61.2723 16.6139 60.842 18.4022 60.3798C20.811 59.7594 23.0741 59.0867 25.1915 58.3615C25.9038 58.1186 26.5997 57.8707 27.2794 57.6181C37.3274 53.8779 44.0525 49.0007 48.6302 43.7088C49.4067 42.813 50.1225 41.9065 50.7777 40.9891C51.7801 39.5928 52.6907 38.125 53.5029 36.5962C54.6239 34.472 55.5656 32.2469 56.3168 29.9469L56.358 29.8206C60.0003 18.686 58.8922 8.35813 62.9105 4.90146C80.0871 -9.87603 101.472 11.1685 111.509 35.9855C112.015 37.236 112.491 38.4941 112.936 39.7597C113.137 40.325 113.33 40.8914 113.516 41.4589C114.005 42.9377 114.449 44.4204 114.847 45.9069C115 46.4738 115.146 47.0402 115.284 47.606C115.432 48.2167 115.575 48.8258 115.706 49.4348C116.683 53.8941 117.213 58.2919 117.213 62.4499Z" fill="#F23030"/>
<path d="M64.1302 119.985C63.7251 119.995 63.3186 120 62.9105 120C53.2155 120 41.0216 114.512 29.9557 106.915C29.0401 106.287 28.1328 105.644 27.2335 104.986L28.0222 99.8999L51.898 96.5404L63.881 106.251L64.1302 119.985Z" fill="#1F1F1F"/>
<path d="M65.2795 29.1646H61.8772C61.7719 29.1646 61.6708 29.209 61.5963 29.2879C61.5218 29.3669 61.4799 29.474 61.4799 29.5857V33.193C61.4799 33.2482 61.4902 33.3029 61.5102 33.3538C61.5302 33.4048 61.5595 33.4511 61.5965 33.4901C61.6334 33.5291 61.6771 33.5599 61.7253 33.5809C61.7735 33.6019 61.8251 33.6127 61.8772 33.6125H65.2795C65.3847 33.6126 65.4856 33.5684 65.5601 33.4898C65.6346 33.4111 65.6766 33.3044 65.677 33.193V29.5857C65.6766 29.4741 65.6347 29.3672 65.5602 29.2882C65.4857 29.2093 65.3848 29.1649 65.2795 29.1646V29.1646Z" fill="#1D594E"/>
<path d="M65.2795 35.3118H61.8772C61.7719 35.3118 61.6708 35.3562 61.5963 35.4352C61.5218 35.5141 61.4799 35.6212 61.4799 35.7329V39.3402C61.4799 39.3954 61.4902 39.4501 61.5102 39.5011C61.5302 39.552 61.5595 39.5983 61.5965 39.6373C61.6334 39.6763 61.6771 39.7071 61.7253 39.7281C61.7735 39.7492 61.8251 39.7599 61.8772 39.7597H65.2795C65.3847 39.7598 65.4856 39.7156 65.5601 39.637C65.6346 39.5584 65.6766 39.4516 65.677 39.3402V35.7329C65.6766 35.6213 65.6347 35.5144 65.5602 35.4355C65.4858 35.3566 65.3848 35.3121 65.2795 35.3118Z" fill="#1D594E"/>
<path d="M65.2795 41.4589H61.8772C61.7719 41.4589 61.6708 41.5033 61.5963 41.5823C61.5218 41.6613 61.4799 41.7683 61.4799 41.88V45.4857C61.4798 45.5411 61.49 45.5959 61.5099 45.647C61.5298 45.6982 61.5591 45.7446 61.596 45.7837C61.6329 45.8229 61.6768 45.8539 61.725 45.875C61.7733 45.8961 61.825 45.907 61.8772 45.9068H65.2795C65.3849 45.9068 65.486 45.8624 65.5605 45.7835C65.635 45.7045 65.6769 45.5974 65.677 45.4857V41.88C65.6767 41.7684 65.6347 41.6615 65.5602 41.5826C65.4858 41.5037 65.3849 41.4592 65.2795 41.4589V41.4589Z" fill="#E6E6E6"/>
<path d="M65.6709 47.9526C65.6539 47.8556 65.6055 47.7679 65.5341 47.7046C65.4627 47.6414 65.3727 47.6065 65.2796 47.606H61.8772C61.7719 47.606 61.6708 47.6504 61.5963 47.7294C61.5218 47.8084 61.4799 47.9154 61.4799 48.0271V51.6328C61.4798 51.6881 61.49 51.7429 61.5099 51.7941C61.5298 51.8452 61.5591 51.8917 61.596 51.9308C61.6329 51.97 61.6768 52.001 61.725 52.0221C61.7733 52.0432 61.825 52.054 61.8772 52.0539H65.2796C65.385 52.0539 65.486 52.0095 65.5605 51.9305C65.635 51.8516 65.6769 51.7445 65.677 51.6328V48.0271C65.6773 48.0021 65.6752 47.9772 65.6709 47.9526V47.9526Z" fill="#E6E6E6"/>
<path d="M65.4339 53.7856C65.385 53.7641 65.3325 53.7531 65.2795 53.7532H61.8772C61.825 53.7531 61.7733 53.7639 61.725 53.785C61.6768 53.8061 61.6329 53.8372 61.596 53.8763C61.5591 53.9154 61.5298 53.9619 61.5099 54.013C61.49 54.0642 61.4798 54.119 61.4799 54.1743V57.78C61.4796 57.8354 61.4897 57.8903 61.5096 57.9415C61.5295 57.9927 61.5588 58.0392 61.5957 58.0784C61.6327 58.1175 61.6766 58.1485 61.7249 58.1696C61.7732 58.1907 61.825 58.2014 61.8772 58.2012H65.2795C65.3849 58.2011 65.486 58.1567 65.5605 58.0778C65.635 57.9988 65.6769 57.8917 65.6769 57.78V54.1743C65.6768 54.0914 65.6536 54.0104 65.6104 53.9413C65.5672 53.8722 65.5059 53.8181 65.4339 53.7856Z" fill="#E6E6E6"/>
<path d="M72.4266 29.1646H69.0243C68.9189 29.1646 68.8178 29.209 68.7433 29.2879C68.6688 29.3669 68.6269 29.474 68.6269 29.5857V33.193C68.6269 33.2482 68.6373 33.3029 68.6573 33.3538C68.6773 33.4048 68.7066 33.4511 68.7435 33.4901C68.7804 33.5291 68.8242 33.5599 68.8724 33.5809C68.9206 33.6019 68.9722 33.6127 69.0243 33.6125H72.4266C72.5317 33.6126 72.6326 33.5684 72.7071 33.4898C72.7816 33.4111 72.8236 33.3044 72.824 33.193V29.5857C72.8237 29.4741 72.7817 29.3672 72.7072 29.2882C72.6328 29.2093 72.5319 29.1649 72.4266 29.1646V29.1646Z" fill="#1D594E"/>
<path d="M72.4266 35.3118H69.0243C68.9189 35.3118 68.8178 35.3562 68.7433 35.4352C68.6688 35.5141 68.6269 35.6212 68.6269 35.7329V39.3402C68.6269 39.3954 68.6373 39.4501 68.6573 39.5011C68.6773 39.552 68.7066 39.5983 68.7435 39.6373C68.7804 39.6763 68.8242 39.7071 68.8724 39.7281C68.9206 39.7492 68.9722 39.7599 69.0243 39.7597H72.4266C72.5317 39.7598 72.6326 39.7156 72.7071 39.637C72.7816 39.5584 72.8236 39.4516 72.824 39.3402V35.7329C72.8237 35.6213 72.7817 35.5144 72.7072 35.4355C72.6328 35.3566 72.5319 35.3121 72.4266 35.3118Z" fill="#F29F05"/>
<path d="M72.4266 41.4589H69.0243C68.9189 41.4589 68.8178 41.5033 68.7433 41.5823C68.6688 41.6613 68.6269 41.7683 68.6269 41.88V45.4857C68.6268 45.5411 68.637 45.5959 68.6569 45.647C68.6769 45.6982 68.7061 45.7446 68.743 45.7837C68.78 45.8229 68.8238 45.8539 68.8721 45.875C68.9203 45.8961 68.9721 45.907 69.0243 45.9068H72.4266C72.532 45.9068 72.633 45.8624 72.7075 45.7835C72.7821 45.7045 72.8239 45.5974 72.824 45.4857V41.88C72.8237 41.7684 72.7817 41.6615 72.7073 41.5826C72.6328 41.5037 72.5319 41.4592 72.4266 41.4589V41.4589Z" fill="#F29F05"/>
<path d="M72.4266 47.606H69.0243C68.9409 47.606 68.8598 47.6339 68.7923 47.6857C68.7248 47.7374 68.6744 47.8104 68.6483 47.8943C68.6341 47.937 68.6269 47.9819 68.6269 48.0271V51.6328C68.6268 51.6881 68.637 51.743 68.6569 51.7941C68.6769 51.8452 68.7061 51.8917 68.743 51.9308C68.78 51.97 68.8238 52.001 68.8721 52.0221C68.9203 52.0432 68.9721 52.0541 69.0243 52.054H72.4266C72.532 52.0539 72.633 52.0095 72.7075 51.9306C72.7821 51.8516 72.8239 51.7445 72.824 51.6328V48.0271C72.8237 47.9155 72.7817 47.8086 72.7072 47.7297C72.6328 47.6508 72.5319 47.6063 72.4266 47.606V47.606Z" fill="#F29F05"/>
<path d="M72.4266 53.7532H69.0243C68.9721 53.7531 68.9203 53.7639 68.8721 53.785C68.8238 53.8061 68.78 53.8372 68.743 53.8763C68.7061 53.9154 68.6769 53.9619 68.6569 54.013C68.637 54.0642 68.6268 54.119 68.6269 54.1743V57.78C68.6268 57.8354 68.637 57.8902 68.6569 57.9413C68.6769 57.9925 68.7061 58.0389 68.743 58.0781C68.78 58.1172 68.8238 58.1482 68.8721 58.1693C68.9203 58.1905 68.9721 58.2013 69.0243 58.2012H72.4266C72.532 58.2011 72.633 58.1567 72.7075 58.0778C72.7821 57.9988 72.8239 57.8917 72.824 57.78V54.1743C72.8239 54.0626 72.7821 53.9555 72.7075 53.8766C72.633 53.7976 72.532 53.7532 72.4266 53.7532V53.7532Z" fill="#E6E6E6"/>
<path d="M79.5736 29.1646H76.1713C76.0659 29.1646 75.9649 29.209 75.8904 29.2879C75.8159 29.3669 75.774 29.474 75.7739 29.5857V33.193C75.774 33.2482 75.7843 33.3029 75.8043 33.3538C75.8243 33.4048 75.8536 33.4511 75.8905 33.4901C75.9274 33.5291 75.9712 33.5599 76.0194 33.5809C76.0676 33.6019 76.1192 33.6127 76.1713 33.6125H79.5736C79.6787 33.6126 79.7796 33.5684 79.8541 33.4898C79.9286 33.4111 79.9706 33.3044 79.971 33.193V29.5857C79.9706 29.4741 79.9287 29.3672 79.8542 29.2882C79.7798 29.2093 79.6789 29.1649 79.5736 29.1646V29.1646Z" fill="#F29F05"/>
<path d="M79.5736 35.3118H76.1713C76.0659 35.3118 75.9649 35.3562 75.8904 35.4352C75.8158 35.5141 75.774 35.6212 75.7739 35.7329V39.3402C75.774 39.3954 75.7843 39.4501 75.8043 39.5011C75.8243 39.552 75.8536 39.5983 75.8905 39.6373C75.9274 39.6763 75.9712 39.7071 76.0194 39.7281C76.0676 39.7492 76.1192 39.7599 76.1713 39.7597H79.5736C79.6787 39.7598 79.7796 39.7156 79.8541 39.637C79.9286 39.5584 79.9706 39.4516 79.971 39.3402V35.7329C79.9707 35.6213 79.9287 35.5144 79.8542 35.4355C79.7798 35.3566 79.6789 35.3121 79.5736 35.3118Z" fill="#F29F05"/>
<path d="M79.5736 41.4589H76.1713C76.0659 41.4589 75.9649 41.5033 75.8904 41.5823C75.8158 41.6613 75.774 41.7683 75.7739 41.88V45.4857C75.7738 45.5411 75.784 45.5959 75.804 45.647C75.8239 45.6982 75.8532 45.7446 75.8901 45.7837C75.927 45.8229 75.9708 45.8539 76.0191 45.875C76.0674 45.8961 76.1191 45.907 76.1713 45.9068H79.5736C79.6789 45.9068 79.78 45.8624 79.8545 45.7835C79.929 45.7045 79.9709 45.5974 79.971 45.4857V41.88C79.9707 41.7684 79.9287 41.6615 79.8542 41.5826C79.7798 41.5037 79.6789 41.4592 79.5736 41.4589V41.4589Z" fill="#1D594E"/>
<path d="M79.5736 47.606H76.1713C76.0659 47.606 75.9649 47.6504 75.8904 47.7294C75.8159 47.8084 75.774 47.9154 75.7739 48.0271V51.6328C75.7738 51.6881 75.784 51.7429 75.804 51.7941C75.8239 51.8452 75.8532 51.8917 75.8901 51.9308C75.927 51.97 75.9708 52.001 76.0191 52.0221C76.0674 52.0432 76.1191 52.054 76.1713 52.0539H79.5736C79.6789 52.0539 79.78 52.0095 79.8545 51.9305C79.929 51.8516 79.9709 51.7445 79.971 51.6328V48.0271C79.9707 47.9155 79.9287 47.8086 79.8542 47.7297C79.7798 47.6508 79.6789 47.6063 79.5736 47.606V47.606Z" fill="#F29F05"/>
<path d="M79.5736 53.7532H76.1713C76.1191 53.7531 76.0674 53.7639 76.0191 53.785C75.9708 53.8061 75.927 53.8372 75.8901 53.8763C75.8532 53.9154 75.8239 53.9619 75.804 54.013C75.784 54.0642 75.7738 54.119 75.7739 54.1743V57.78C75.7738 57.8354 75.784 57.8902 75.804 57.9413C75.8239 57.9925 75.8532 58.0389 75.8901 58.0781C75.927 58.1172 75.9708 58.1482 76.0191 58.1693C76.0674 58.1905 76.1191 58.2013 76.1713 58.2012H79.5736C79.6789 58.2011 79.78 58.1567 79.8545 58.0778C79.929 57.9988 79.9709 57.8917 79.971 57.78V54.1743C79.9709 54.0626 79.929 53.9555 79.8545 53.8766C79.78 53.7976 79.6789 53.7532 79.5736 53.7532V53.7532Z" fill="#F29F05"/>
<path d="M86.7206 29.1646H83.3182C83.2129 29.1646 83.1118 29.209 83.0373 29.2879C82.9628 29.3669 82.9209 29.474 82.9208 29.5857V33.193C82.9209 33.2482 82.9312 33.3029 82.9512 33.3538C82.9712 33.4048 83.0005 33.4511 83.0374 33.4901C83.0744 33.5291 83.1181 33.5599 83.1663 33.5809C83.2145 33.6019 83.2661 33.6127 83.3182 33.6125H86.7206C86.8257 33.6126 86.9266 33.5684 87.0011 33.4898C87.0756 33.4111 87.1176 33.3044 87.118 33.193V29.5857C87.1177 29.4741 87.0757 29.3672 87.0012 29.2882C86.9268 29.2093 86.8259 29.1649 86.7206 29.1646V29.1646Z" fill="#F29F05"/>
<path d="M86.7206 35.3118H83.3182C83.2128 35.3118 83.1118 35.3562 83.0373 35.4352C82.9628 35.5141 82.9209 35.6212 82.9208 35.7329V39.3402C82.9209 39.3954 82.9312 39.4501 82.9512 39.5011C82.9712 39.552 83.0005 39.5983 83.0374 39.6373C83.0744 39.6763 83.1181 39.7071 83.1663 39.7281C83.2145 39.7492 83.2661 39.7599 83.3182 39.7597H86.7206C86.8257 39.7598 86.9266 39.7156 87.0011 39.637C87.0756 39.5584 87.1176 39.4516 87.118 39.3402V35.7329C87.1177 35.6213 87.0757 35.5144 87.0012 35.4355C86.9268 35.3566 86.8259 35.3121 86.7206 35.3118V35.3118Z" fill="#1D594E"/>
<path d="M86.7206 41.4589H83.3182C83.2128 41.4589 83.1118 41.5033 83.0373 41.5823C82.9628 41.6613 82.9209 41.7683 82.9208 41.88V45.4857C82.9207 45.5411 82.9309 45.5959 82.9509 45.647C82.9708 45.6982 83.0001 45.7446 83.037 45.7837C83.0739 45.8229 83.1178 45.8539 83.166 45.875C83.2143 45.8961 83.266 45.907 83.3182 45.9068H86.7206C86.8259 45.9068 86.927 45.8624 87.0015 45.7835C87.076 45.7045 87.1179 45.5974 87.118 45.4857V41.88C87.1177 41.7684 87.0757 41.6615 87.0012 41.5826C86.9268 41.5037 86.8259 41.4592 86.7206 41.4589V41.4589Z" fill="#1D594E"/>
<path d="M86.7206 47.606H83.3182C83.2128 47.606 83.1118 47.6504 83.0373 47.7294C82.9628 47.8084 82.9209 47.9154 82.9208 48.0271V51.6328C82.9207 51.6881 82.9309 51.7429 82.9509 51.7941C82.9708 51.8452 83.0001 51.8917 83.037 51.9308C83.0739 51.97 83.1178 52.001 83.166 52.0221C83.2143 52.0432 83.266 52.054 83.3182 52.0539H86.7206C86.8259 52.0539 86.927 52.0095 87.0015 51.9305C87.076 51.8516 87.1179 51.7445 87.118 51.6328V48.0271C87.1177 47.9155 87.0757 47.8086 87.0012 47.7297C86.9268 47.6508 86.8259 47.6063 86.7206 47.606V47.606Z" fill="#1D594E"/>
<path d="M86.7206 53.7532H83.3182C83.266 53.7531 83.2143 53.7639 83.166 53.785C83.1178 53.8061 83.0739 53.8372 83.037 53.8763C83.0001 53.9154 82.9708 53.9619 82.9509 54.013C82.9309 54.0642 82.9207 54.119 82.9208 54.1743V57.78C82.9207 57.8354 82.9309 57.8902 82.9509 57.9413C82.9708 57.9925 83.0001 58.0389 83.037 58.0781C83.0739 58.1172 83.1178 58.1482 83.166 58.1693C83.2143 58.1905 83.266 58.2013 83.3182 58.2012H86.7206C86.8259 58.2011 86.927 58.1567 87.0015 58.0778C87.076 57.9988 87.1179 57.8917 87.118 57.78V54.1743C87.1179 54.0626 87.076 53.9555 87.0015 53.8766C86.927 53.7976 86.8259 53.7532 86.7206 53.7532V53.7532Z" fill="#F29F05"/>
<path d="M93.8676 29.1646H90.4637C90.3586 29.1649 90.2579 29.2095 90.1837 29.2884C90.1095 29.3674 90.0678 29.4743 90.0679 29.5857V33.193C90.0679 33.3043 90.1096 33.411 90.1838 33.4896C90.2581 33.5683 90.3588 33.6125 90.4637 33.6125H93.8676C93.9727 33.6126 94.0736 33.5684 94.1481 33.4898C94.2226 33.4112 94.2646 33.3044 94.265 33.193V29.5857C94.2647 29.4741 94.2227 29.3672 94.1482 29.2882C94.0738 29.2093 93.9729 29.1649 93.8676 29.1646Z" fill="#1D594E"/>
<path d="M93.8676 35.3118H90.4637C90.3586 35.3122 90.2579 35.3567 90.1837 35.4356C90.1095 35.5146 90.0678 35.6215 90.0679 35.7329V39.3402C90.0679 39.4515 90.1096 39.5582 90.1838 39.6368C90.2581 39.7155 90.3588 39.7597 90.4637 39.7597H93.8676C93.9727 39.7598 94.0736 39.7157 94.1481 39.637C94.2226 39.5584 94.2646 39.4516 94.265 39.3402V35.7329C94.2647 35.6213 94.2227 35.5144 94.1483 35.4355C94.0738 35.3566 93.9729 35.3121 93.8676 35.3118V35.3118Z" fill="#1D594E"/>
<path d="M93.8676 41.4589H90.4637C90.3586 41.4593 90.2579 41.5038 90.1837 41.5828C90.1095 41.6617 90.0678 41.7686 90.0679 41.88V45.4857C90.0677 45.5409 90.0779 45.5956 90.0977 45.6467C90.1175 45.6977 90.1466 45.7442 90.1834 45.7833C90.2202 45.8224 90.2639 45.8534 90.312 45.8746C90.3601 45.8958 90.4116 45.9068 90.4637 45.9068H93.8676C93.973 45.9068 94.074 45.8624 94.1486 45.7834C94.2231 45.7045 94.265 45.5974 94.265 45.4857V41.88C94.2647 41.7684 94.2227 41.6615 94.1483 41.5826C94.0738 41.5037 93.9729 41.4592 93.8676 41.4589V41.4589Z" fill="#1D594E"/>
<path d="M93.8676 47.606H90.4637C90.3586 47.6064 90.2579 47.6509 90.1837 47.7298C90.1095 47.8088 90.0678 47.9157 90.0679 48.0271V51.6328C90.0677 51.688 90.0779 51.7427 90.0977 51.7938C90.1175 51.8448 90.1466 51.8913 90.1834 51.9304C90.2202 51.9695 90.2639 52.0005 90.312 52.0218C90.3601 52.043 90.4116 52.0539 90.4637 52.054H93.8676C93.973 52.0539 94.074 52.0095 94.1486 51.9306C94.2231 51.8516 94.265 51.7445 94.265 51.6328V48.0271C94.2647 47.9155 94.2227 47.8086 94.1483 47.7297C94.0738 47.6508 93.9729 47.6063 93.8676 47.606V47.606Z" fill="#F29F05"/>
<path d="M93.8676 53.7532H90.4637C90.4116 53.7532 90.3601 53.7642 90.312 53.7854C90.2639 53.8066 90.2202 53.8376 90.1834 53.8768C90.1466 53.9159 90.1175 53.9623 90.0977 54.0133C90.0779 54.0644 90.0677 54.1191 90.0679 54.1743V57.78C90.0677 57.8352 90.0779 57.8899 90.0977 57.941C90.1175 57.9921 90.1466 58.0385 90.1834 58.0776C90.2202 58.1167 90.2639 58.1478 90.312 58.169C90.3601 58.1902 90.4116 58.2011 90.4637 58.2012H93.8676C93.973 58.2011 94.074 58.1567 94.1486 58.0778C94.2231 57.9988 94.265 57.8917 94.265 57.78V54.1743C94.265 54.0626 94.2231 53.9555 94.1486 53.8766C94.074 53.7976 93.973 53.7532 93.8676 53.7532V53.7532Z" fill="#1D594E"/>
<path d="M101.015 29.1646H97.6107C97.5056 29.1649 97.4049 29.2095 97.3307 29.2884C97.2565 29.3674 97.2148 29.4743 97.2148 29.5857V33.193C97.2149 33.3043 97.2566 33.411 97.3308 33.4896C97.405 33.5683 97.5057 33.6125 97.6107 33.6125H101.015C101.12 33.6126 101.221 33.5684 101.295 33.4898C101.37 33.4112 101.412 33.3044 101.412 33.193V29.5857C101.412 29.4741 101.37 29.3672 101.295 29.2883C101.221 29.2093 101.12 29.1649 101.015 29.1646V29.1646Z" fill="#1D594E"/>
<path d="M101.015 35.3118H97.6107C97.5056 35.3122 97.4049 35.3567 97.3307 35.4356C97.2564 35.5146 97.2148 35.6215 97.2148 35.7329V39.3402C97.2149 39.4515 97.2566 39.5582 97.3308 39.6368C97.405 39.7155 97.5057 39.7597 97.6107 39.7597H101.015C101.12 39.7598 101.221 39.7156 101.295 39.637C101.37 39.5584 101.412 39.4516 101.412 39.3402V35.7329C101.412 35.6213 101.37 35.5144 101.295 35.4355C101.221 35.3566 101.12 35.3121 101.015 35.3118V35.3118Z" fill="#1D594E"/>
<path d="M101.015 41.4589H97.6107C97.5056 41.4593 97.4049 41.5038 97.3307 41.5828C97.2565 41.6617 97.2148 41.7686 97.2148 41.88V45.4857C97.2147 45.5409 97.2248 45.5956 97.2447 45.6467C97.2645 45.6977 97.2936 45.7442 97.3304 45.7833C97.3671 45.8224 97.4108 45.8534 97.4589 45.8746C97.507 45.8958 97.5586 45.9068 97.6107 45.9068H101.015C101.12 45.9068 101.221 45.8624 101.296 45.7834C101.37 45.7045 101.412 45.5974 101.412 45.4857V41.88C101.412 41.7684 101.37 41.6615 101.295 41.5826C101.221 41.5037 101.12 41.4592 101.015 41.4589V41.4589Z" fill="#F29F05"/>
<path d="M101.015 47.606H97.6107C97.5056 47.6064 97.4049 47.6509 97.3307 47.7298C97.2565 47.8088 97.2148 47.9157 97.2148 48.0271V51.6328C97.2147 51.688 97.2248 51.7427 97.2447 51.7938C97.2645 51.8448 97.2936 51.8913 97.3304 51.9304C97.3671 51.9695 97.4108 52.0005 97.4589 52.0218C97.507 52.043 97.5586 52.0539 97.6107 52.054H101.015C101.12 52.0539 101.221 52.0095 101.296 51.9305C101.37 51.8516 101.412 51.7445 101.412 51.6328V48.0271C101.412 47.9155 101.37 47.8086 101.295 47.7297C101.221 47.6508 101.12 47.6063 101.015 47.606V47.606Z" fill="#1D594E"/>
<path d="M101.015 53.7532H97.6107C97.5586 53.7532 97.507 53.7642 97.4589 53.7854C97.4108 53.8066 97.3671 53.8376 97.3304 53.8768C97.2936 53.9159 97.2645 53.9623 97.2447 54.0133C97.2248 54.0644 97.2147 54.1191 97.2148 54.1743V57.78C97.2147 57.8352 97.2248 57.8899 97.2447 57.941C97.2645 57.9921 97.2936 58.0385 97.3304 58.0776C97.3671 58.1167 97.4108 58.1478 97.4589 58.169C97.507 58.1902 97.5586 58.2011 97.6107 58.2012H101.015C101.12 58.2011 101.221 58.1567 101.296 58.0778C101.37 57.9988 101.412 57.8917 101.412 57.78V54.1743C101.412 54.0626 101.37 53.9556 101.296 53.8766C101.221 53.7976 101.12 53.7532 101.015 53.7532Z" fill="#1D594E"/>
<path d="M108.162 29.1646H104.758C104.653 29.1649 104.552 29.2095 104.478 29.2884C104.403 29.3674 104.362 29.4743 104.362 29.5857V33.193C104.362 33.3043 104.404 33.411 104.478 33.4896C104.552 33.5683 104.653 33.6125 104.758 33.6125H108.162C108.267 33.6126 108.368 33.5684 108.442 33.4898C108.517 33.4112 108.559 33.3044 108.559 33.193V29.5857C108.559 29.4741 108.517 29.3672 108.442 29.2883C108.368 29.2093 108.267 29.1649 108.162 29.1646V29.1646Z" fill="#F29F05"/>
<path d="M108.162 35.3118H104.758C104.653 35.3122 104.552 35.3567 104.478 35.4356C104.403 35.5146 104.362 35.6215 104.362 35.7329V39.3402C104.362 39.4515 104.404 39.5582 104.478 39.6368C104.552 39.7155 104.653 39.7597 104.758 39.7597H108.162C108.267 39.7598 108.368 39.7156 108.442 39.637C108.517 39.5584 108.559 39.4516 108.559 39.3402V35.7329C108.559 35.6213 108.517 35.5144 108.442 35.4355C108.368 35.3566 108.267 35.3121 108.162 35.3118Z" fill="#F29F05"/>
<path d="M108.162 41.4589H104.758C104.653 41.4593 104.552 41.5038 104.478 41.5828C104.403 41.6617 104.362 41.7686 104.362 41.88V45.4857C104.362 45.5409 104.372 45.5956 104.392 45.6467C104.412 45.6977 104.441 45.7442 104.477 45.7833C104.514 45.8224 104.558 45.8534 104.606 45.8746C104.654 45.8958 104.706 45.9068 104.758 45.9068H108.162C108.267 45.9068 108.368 45.8624 108.442 45.7834C108.517 45.7045 108.559 45.5974 108.559 45.4857V41.88C108.559 41.7684 108.517 41.6615 108.442 41.5826C108.368 41.5037 108.267 41.4592 108.162 41.4589V41.4589Z" fill="#1D594E"/>
<path d="M108.162 47.606H104.758C104.653 47.6064 104.552 47.6509 104.478 47.7298C104.403 47.8088 104.362 47.9157 104.362 48.0271V51.6328C104.362 51.688 104.372 51.7427 104.392 51.7938C104.412 51.8448 104.441 51.8913 104.477 51.9304C104.514 51.9695 104.558 52.0005 104.606 52.0218C104.654 52.043 104.706 52.0539 104.758 52.054H108.162C108.267 52.0539 108.368 52.0095 108.442 51.9305C108.517 51.8516 108.559 51.7445 108.559 51.6328V48.0271C108.559 47.9155 108.517 47.8086 108.442 47.7297C108.368 47.6508 108.267 47.6063 108.162 47.606V47.606Z" fill="#1D594E"/>
<path d="M108.162 53.7532H104.758C104.706 53.7532 104.654 53.7642 104.606 53.7854C104.558 53.8066 104.514 53.8376 104.477 53.8768C104.441 53.9159 104.412 53.9623 104.392 54.0133C104.372 54.0644 104.362 54.1191 104.362 54.1743V57.78C104.362 57.8352 104.372 57.8899 104.392 57.941C104.412 57.9921 104.441 58.0385 104.477 58.0776C104.514 58.1167 104.558 58.1478 104.606 58.169C104.654 58.1902 104.706 58.2011 104.758 58.2012H108.162C108.267 58.2011 108.368 58.1567 108.442 58.0778C108.517 57.9988 108.559 57.8917 108.559 57.78V54.1743C108.559 54.0626 108.517 53.9556 108.442 53.8766C108.368 53.7976 108.267 53.7532 108.162 53.7532Z" fill="#F29F05"/>
<path d="M115.309 29.1646H111.905C111.8 29.1649 111.699 29.2095 111.625 29.2884C111.55 29.3674 111.509 29.4743 111.509 29.5857V33.193C111.509 33.3043 111.551 33.411 111.625 33.4896C111.699 33.5683 111.8 33.6125 111.905 33.6125H115.309C115.414 33.6126 115.515 33.5684 115.589 33.4898C115.664 33.4112 115.706 33.3044 115.706 33.193V29.5857C115.706 29.4741 115.664 29.3672 115.589 29.2883C115.515 29.2093 115.414 29.1649 115.309 29.1646Z" fill="#F29F05"/>
<path d="M115.309 35.3118H111.905C111.8 35.3122 111.699 35.3567 111.625 35.4356C111.55 35.5146 111.509 35.6215 111.509 35.7329V39.3402C111.509 39.4515 111.551 39.5582 111.625 39.6368C111.699 39.7155 111.8 39.7597 111.905 39.7597H115.309C115.414 39.7598 115.515 39.7156 115.589 39.637C115.664 39.5584 115.706 39.4516 115.706 39.3402V35.7329C115.706 35.6213 115.664 35.5144 115.589 35.4355C115.515 35.3566 115.414 35.3121 115.309 35.3118V35.3118Z" fill="#F29F05"/>
<path d="M115.309 41.4589H111.905C111.8 41.4593 111.699 41.5038 111.625 41.5828C111.55 41.6617 111.509 41.7686 111.509 41.88V45.4857C111.509 45.5409 111.519 45.5956 111.539 45.6467C111.558 45.6977 111.588 45.7442 111.624 45.7833C111.661 45.8224 111.705 45.8534 111.753 45.8746C111.801 45.8958 111.853 45.9068 111.905 45.9068H115.309C115.414 45.9068 115.515 45.8624 115.59 45.7834C115.664 45.7045 115.706 45.5974 115.706 45.4857V41.88C115.706 41.7684 115.664 41.6615 115.589 41.5826C115.515 41.5037 115.414 41.4592 115.309 41.4589Z" fill="#1D594E"/>
<path d="M115.309 47.606H111.905C111.8 47.6064 111.699 47.6509 111.625 47.7298C111.55 47.8088 111.509 47.9157 111.509 48.0271V51.6328C111.509 51.688 111.519 51.7427 111.539 51.7938C111.558 51.8448 111.588 51.8913 111.624 51.9304C111.661 51.9695 111.705 52.0005 111.753 52.0218C111.801 52.043 111.853 52.0539 111.905 52.054H115.309C115.414 52.0539 115.515 52.0095 115.59 51.9305C115.664 51.8516 115.706 51.7445 115.706 51.6328V48.0271C115.706 47.9155 115.664 47.8086 115.589 47.7297C115.515 47.6508 115.414 47.6063 115.309 47.606V47.606Z" fill="#F29F05"/>
<path d="M115.309 53.7532H111.905C111.853 53.7532 111.801 53.7642 111.753 53.7854C111.705 53.8066 111.661 53.8376 111.624 53.8768C111.588 53.9159 111.558 53.9623 111.539 54.0133C111.519 54.0644 111.509 54.1191 111.509 54.1743V57.78C111.509 57.8352 111.519 57.8899 111.539 57.941C111.558 57.9921 111.588 58.0385 111.624 58.0776C111.661 58.1167 111.705 58.1478 111.753 58.169C111.801 58.1902 111.853 58.2011 111.905 58.2012H115.309C115.414 58.2011 115.515 58.1567 115.59 58.0778C115.664 57.9988 115.706 57.8917 115.706 57.78V54.1743C115.706 54.0626 115.664 53.9556 115.59 53.8766C115.515 53.7976 115.414 53.7532 115.309 53.7532V53.7532Z" fill="#F29F05"/>
<path d="M122.456 35.3118H119.052C118.947 35.3122 118.846 35.3567 118.772 35.4356C118.697 35.5146 118.656 35.6215 118.656 35.7329V39.3402C118.656 39.4515 118.698 39.5582 118.772 39.6368C118.846 39.7155 118.947 39.7597 119.052 39.7597H122.456C122.561 39.7598 122.662 39.7156 122.736 39.637C122.811 39.5584 122.853 39.4516 122.853 39.3402V35.7329C122.853 35.6213 122.811 35.5144 122.736 35.4355C122.662 35.3566 122.561 35.3121 122.456 35.3118V35.3118Z" fill="#F29F05"/>
<path d="M122.456 41.4589H119.052C118.947 41.4593 118.846 41.5038 118.772 41.5828C118.697 41.6617 118.656 41.7686 118.656 41.88V45.4857C118.656 45.5409 118.666 45.5956 118.686 45.6467C118.706 45.6977 118.735 45.7442 118.771 45.7833C118.808 45.8224 118.852 45.8534 118.9 45.8746C118.948 45.8958 119 45.9068 119.052 45.9068H122.456C122.561 45.9068 122.662 45.8624 122.737 45.7834C122.811 45.7045 122.853 45.5974 122.853 45.4857V41.88C122.853 41.7684 122.811 41.6615 122.736 41.5826C122.662 41.5037 122.561 41.4592 122.456 41.4589V41.4589Z" fill="#F29F05"/>
<path d="M122.456 47.606H119.052C118.947 47.6064 118.846 47.6509 118.772 47.7298C118.697 47.8088 118.656 47.9157 118.656 48.0271V51.6328C118.656 51.688 118.666 51.7427 118.686 51.7938C118.706 51.8448 118.735 51.8913 118.771 51.9304C118.808 51.9695 118.852 52.0005 118.9 52.0218C118.948 52.043 119 52.0539 119.052 52.054H122.456C122.561 52.0539 122.662 52.0095 122.737 51.9305C122.811 51.8516 122.853 51.7445 122.853 51.6328V48.0271C122.853 47.9155 122.811 47.8086 122.736 47.7297C122.662 47.6508 122.561 47.6063 122.456 47.606V47.606Z" fill="#F29F05"/>
<path d="M129.603 41.4589H126.199C126.094 41.4593 125.993 41.5038 125.919 41.5828C125.844 41.6617 125.803 41.7686 125.803 41.88V45.4857C125.803 45.5409 125.813 45.5956 125.833 45.6467C125.852 45.6977 125.882 45.7442 125.918 45.7833C125.955 45.8224 125.999 45.8534 126.047 45.8746C126.095 45.8958 126.147 45.9068 126.199 45.9068H129.603C129.708 45.9068 129.809 45.8624 129.884 45.7834C129.958 45.7045 130 45.5974 130 45.4857V41.88C130 41.7684 129.958 41.6615 129.883 41.5826C129.809 41.5037 129.708 41.4592 129.603 41.4589V41.4589Z" fill="#F29F05"/>
<path d="M51.3695 106.915H51.2755L51.3558 106.904L51.3695 106.915Z" fill="#2F2E41"/>
<path d="M43.2266 39.6941C48.9939 39.6941 53.6692 34.7393 53.6692 28.6272C53.6692 22.5152 48.9939 17.5604 43.2266 17.5604C37.4593 17.5604 32.784 22.5152 32.784 28.6272C32.784 34.7393 37.4593 39.6941 43.2266 39.6941Z" fill="#F23030"/>
<path d="M52.3715 20.5133C52.3715 20.5133 55.1028 14.9799 49.094 14.4769C49.094 14.4769 43.9714 9.55228 38.7501 13.5766C38.7501 13.5766 35.9021 13.5766 34.3447 16.992C34.3447 16.992 32.1048 16.0917 31.6126 18.5011C31.6126 18.5011 29.9735 23.5315 31.6126 28.0589C33.2516 32.5862 33.796 33.0892 33.796 33.0892C33.796 33.0892 31.1027 23.5974 37.6584 23.0944C44.214 22.5913 51.5499 18.2496 52.0962 23.783C52.6425 29.3164 53.4647 30.6798 53.4647 30.6798C53.4647 30.6798 58.6537 22.777 52.3715 20.5133Z" fill="#1F1F1F"/>
<path d="M70.2394 55.9011L70.2058 56.089L69.8282 58.2012L67.2192 72.8118L67.0648 73.672L66.7408 75.491L66.2976 77.9725L65.3147 83.4718L65.0335 85.0478L64.9281 85.6391L64.8914 85.8464L64.5994 87.4775L64.5108 87.97L63.7985 93.5631L63.1764 98.4371L65.2582 100.643L64.0171 101.959L63.2024 106.904L63.204 106.915H29.9557C28.6107 105.992 27.285 105.04 25.9787 104.059L26.2523 101.889C26.2523 101.889 27.1938 98.0127 26.7979 97.5495C26.4036 97.0862 25.5385 96.2585 25.5385 96.2585L26.6283 93.5631L26.7796 93.189L26.5259 87.612L26.5198 87.4775L26.4357 85.6391L26.425 85.4026L26.4082 85.0478L26.0857 77.9725L26.0796 77.8559L25.9818 75.7113L25.89 73.6719L25.8503 72.8118L25.4575 64.2058L25.1916 58.3615L24.9592 53.2737L25.8931 52.9384L35.8815 49.3408L40.019 43.6407L48.6303 43.7088L52.8457 43.7428L59.8796 50.6561L61.4799 51.466L61.4921 51.4725L62.64 52.054L65.5501 53.5264L68.6269 55.0847L70.2058 55.8832L70.2394 55.9011Z" fill="#1D594E"/>
<path d="M41.1318 90.3125C40.5008 90.5716 39.8238 90.6809 39.1486 90.6327C38.4734 90.5845 37.8164 90.38 37.2238 90.0336C36.6312 89.6872 36.1175 89.2074 35.7189 88.6278C35.3203 88.0483 35.0464 87.3831 34.9166 86.6793L18.6296 84.2304L24.2914 77.4431L38.8897 80.8091C40.0199 80.6563 41.1638 80.9482 42.1045 81.6295C43.0452 82.3107 43.7174 83.334 43.9938 84.5054C44.2702 85.6768 44.1315 86.915 43.604 87.9853C43.0765 89.0556 42.1969 89.8836 41.1318 90.3125V90.3125Z" fill="#F23030"/>
<path d="M33.87 77.9725C33.5683 77.5671 33.1412 77.2877 32.6641 77.1836L25.9817 75.7112L25.2955 75.5606C24.8966 75.4724 24.5199 75.2959 24.1898 75.0427C23.8598 74.7896 23.5839 74.4654 23.3803 74.0914C23.1691 73.6988 23.0413 73.2621 23.0058 72.8118C22.974 72.4023 23.0202 71.9903 23.1419 71.6002L25.4575 64.2057L26.9599 59.4079C27.142 58.8292 27.2495 58.2272 27.2794 57.618C27.3631 55.9322 26.8709 54.2709 25.8931 52.9384C25.0334 51.7671 23.841 50.92 22.492 50.5221C21.1431 50.1243 19.7092 50.1968 18.4022 50.729C18.3639 50.7436 18.3242 50.7597 18.286 50.7759C17.3486 51.1726 16.5112 51.7948 15.8398 52.5935C15.1684 53.3922 14.6815 54.3454 14.4175 55.3778L12.7851 61.6707L9.41796 74.6438C9.08089 75.9436 9.0128 77.3052 9.21833 78.6354C9.42387 79.9657 9.89819 81.2332 10.6088 82.3512C11.3194 83.4691 12.2496 84.4112 13.3357 85.1128C14.4217 85.8145 15.638 86.2592 16.9012 86.4165L26.5258 87.6119L30.9797 88.1659C31.4947 88.2315 32.0142 88.089 32.4345 87.7669C32.8549 87.4448 33.1453 86.9667 33.2479 86.4278C33.2551 86.3985 33.2608 86.3688 33.2647 86.3388L33.3717 85.639L34.2781 79.7462L34.2873 79.6862C34.3345 79.3855 34.3218 79.0777 34.2499 78.7825C34.178 78.4873 34.0486 78.2114 33.87 77.9725Z" fill="#1D594E"/>
<path d="M51.5059 90.5013C52.1651 90.6634 52.8498 90.6705 53.5119 90.5219C54.1739 90.3733 54.7972 90.0726 55.3377 89.6411C55.8783 89.2097 56.323 88.6578 56.6405 88.0245C56.9581 87.3911 57.1407 86.6917 57.1756 85.9755L72.9739 81.1171L66.4655 75.2438L52.461 80.7578C51.3217 80.7755 50.2282 81.2354 49.3875 82.0504C48.5468 82.8654 48.0175 83.9789 47.8997 85.18C47.782 86.381 48.0841 87.586 48.7487 88.5668C49.4134 89.5475 50.3944 90.2359 51.5059 90.5013V90.5013Z" fill="#F23030"/>
<path d="M80.8177 70.2493L73.3039 51.9228C72.6893 50.4182 71.5917 49.193 70.2057 48.4645C69.7773 48.241 69.3274 48.0672 68.8638 47.9462C68.7919 47.9267 68.7201 47.9089 68.6482 47.8943C67.6651 47.667 66.6454 47.6869 65.6708 47.9527C64.78 48.1952 63.9474 48.634 63.2274 49.2405C62.5074 49.847 61.9161 50.6075 61.4921 51.4725C61.4874 51.4797 61.4833 51.4873 61.4799 51.4952C61.0062 52.4662 60.7544 53.5415 60.7445 54.6345C60.7347 55.7275 60.9672 56.8077 61.4233 57.7881L61.5165 57.9857L66.8263 69.2871C67.0077 69.6736 67.1098 70.0963 67.1261 70.5275C67.1424 70.9588 67.0725 71.3888 66.921 71.7894C66.7694 72.19 66.5397 72.5521 66.2468 72.852C65.9539 73.1518 65.6045 73.3827 65.2215 73.5294L64.8485 73.6719L58.1417 76.2393C57.6385 76.4296 57.2245 76.8195 56.987 77.3267C56.7496 77.834 56.7071 78.4192 56.8685 78.959L56.8853 79.0157L58.7653 85.3912C58.7745 85.4204 58.7836 85.4495 58.7944 85.4787C58.8109 85.5337 58.8313 85.5873 58.8555 85.639C59.0553 86.1139 59.4085 86.4977 59.8514 86.7213C60.2944 86.9449 60.7981 86.9936 61.2719 86.8588L64.8913 85.8464L65.6295 85.639L74.976 83.0231C76.2058 82.6787 77.3508 82.0567 78.3328 81.1997C79.3147 80.3428 80.1102 79.2711 80.665 78.058C81.2198 76.8449 81.5207 75.5191 81.547 74.1713C81.5734 72.8235 81.3246 71.4857 80.8177 70.2493L80.8177 70.2493Z" fill="#1D594E"/>
<path d="M6.86243 85.639C9.0283 88.4387 11.3641 91.0857 13.8551 93.5631H82.9362C83.6017 93.5642 84.2397 93.845 84.7102 94.3439C85.1807 94.8428 85.4452 95.5191 85.4459 96.2245L85.5452 114.776C89.795 112.707 93.7749 110.065 97.3861 106.915C98.3887 106.042 99.3603 105.131 100.301 104.183C100.917 103.564 101.518 102.93 102.104 102.281C106.501 97.4272 110.061 91.7948 112.623 85.639H6.86243Z" fill="#1F1F1F"/>
<path d="M102.104 102.281C101.519 102.93 100.918 103.564 100.301 104.183H85.5956V102.281H102.104Z" fill="white"/>
<path d="M70.1018 41.4589C70.0292 41.3168 69.9216 41.1981 69.7906 41.1154C69.6596 41.0327 69.5099 40.9891 69.3574 40.9891H19.2489C19.0243 40.9898 18.809 41.0847 18.6503 41.2532C18.4916 41.4217 18.4023 41.65 18.4022 41.8881V73.672H70.2057V41.8881C70.2065 41.7379 70.1707 41.5901 70.1018 41.4589V41.4589Z" fill="#1F1F1F"/>
<path d="M18.3568 72.8114V76.7336C18.3568 76.8962 18.387 77.0572 18.4457 77.2074C18.5045 77.3576 18.5905 77.4941 18.699 77.6091C18.8075 77.724 18.9363 77.8152 19.078 77.8775C19.2198 77.9397 19.3717 77.9717 19.5251 77.9717H38.6455V85.7122H38.3915C38.3715 85.7122 38.3518 85.7164 38.3334 85.7244C38.315 85.7325 38.2982 85.7444 38.2841 85.7593C38.27 85.7742 38.2589 85.792 38.2512 85.8115C38.2436 85.831 38.2397 85.8519 38.2397 85.873V86.4114C38.2397 86.4325 38.2436 86.4535 38.2512 86.473C38.2589 86.4925 38.27 86.5102 38.2841 86.5252C38.2982 86.5401 38.315 86.5519 38.3334 86.56C38.3518 86.5681 38.3715 86.5723 38.3915 86.5723H50.2611C50.281 86.5723 50.3008 86.5681 50.3192 86.56C50.3376 86.5519 50.3543 86.5401 50.3684 86.5252C50.3825 86.5102 50.3937 86.4925 50.4013 86.473C50.409 86.4535 50.4129 86.4325 50.4129 86.4114V85.873C50.4129 85.8519 50.409 85.831 50.4013 85.8115C50.3937 85.792 50.3825 85.7742 50.3684 85.7593C50.3543 85.7444 50.3376 85.7325 50.3192 85.7244C50.3008 85.7164 50.281 85.7122 50.2611 85.7122H50.0071V77.9717H69.1275C69.2809 77.9717 69.4328 77.9397 69.5745 77.8775C69.7163 77.8152 69.8451 77.724 69.9536 77.6091C70.0621 77.4941 70.1481 77.3576 70.2068 77.2074C70.2655 77.0572 70.2958 76.8962 70.2958 76.7336V72.8114H18.3568Z" fill="#1F1F1F"/>
<path d="M43.6986 61.5543C46.3413 61.5543 48.4837 59.2839 48.4837 56.4833C48.4837 53.6826 46.3413 51.4122 43.6986 51.4122C41.056 51.4122 38.9136 53.6826 38.9136 56.4833C38.9136 59.2839 41.056 61.5543 43.6986 61.5543Z" fill="#F29F05"/>
<path d="M55.8903 28.0225H55.1261C55.1261 21.8997 49.4082 17.8874 43.6398 17.8842C42.8008 17.8816 41.9637 17.9678 41.1408 18.1417C40.2146 18.3377 39.2532 18.5726 38.3086 18.8787C34.5838 20.0887 31.1295 22.4277 31.1295 28.0225C31.1287 29.1091 31.2592 30.1913 31.5177 31.2427L30.778 31.4468C30.5036 30.3286 30.3649 29.1779 30.3653 28.0225C30.3653 23.1339 32.259 19.7761 35.5299 17.774C37.2494 16.7211 39.348 16.0424 41.7522 15.712C42.7527 15.5709 43.7642 15.5384 44.7709 15.6148C51.4043 16.1202 55.8903 21.5109 55.8903 28.0225Z" fill="#F29F05"/>
<path d="M57.1635 28.4713L56.8624 26.1128C56.7882 25.5172 56.5174 24.9687 56.0982 24.5643C55.8291 24.3007 55.5069 24.1054 55.156 23.9931C54.8052 23.8809 54.4348 23.8546 54.073 23.9164L53.5946 23.986C53.4637 24.0043 53.3375 24.0499 53.2234 24.1203C53.1092 24.1906 53.0094 24.2843 52.9297 24.3958C52.8493 24.507 52.7905 24.634 52.7567 24.7694C52.7229 24.9048 52.7146 25.0459 52.7326 25.1847L53.428 30.6175C53.4567 30.8389 53.5503 31.0452 53.6957 31.2071C53.8411 31.3691 54.0308 31.4784 54.2381 31.5197C54.2995 31.5328 54.3619 31.5393 54.4246 31.5392C54.4695 31.5392 54.5145 31.5359 54.5591 31.5295L55.094 31.4533C55.4202 31.4075 55.734 31.2914 56.0163 31.1123C56.2986 30.9332 56.5434 30.6948 56.7356 30.4118C56.7768 30.3502 56.8166 30.2871 56.8533 30.2223C57.1397 29.6923 57.2491 29.0753 57.1635 28.4713Z" fill="#F29F05"/>
<path d="M53.2859 24.0848C53.1455 24.1571 53.0235 24.2637 52.9297 24.3958C52.8493 24.507 52.7905 24.634 52.7567 24.7694C52.7229 24.9048 52.7146 25.0459 52.7326 25.1847L53.428 30.6175C53.4567 30.8389 53.5503 31.0452 53.6957 31.2071C53.8411 31.3691 54.0308 31.4784 54.2381 31.5197L53.2859 24.0848Z" fill="white"/>
<path d="M57.1636 28.4713L56.8624 26.1129C56.7882 25.5173 56.5175 24.9687 56.0982 24.5643L56.7906 29.9696C56.801 30.0564 56.822 30.1413 56.8533 30.2223C57.1398 29.6923 57.2491 29.0753 57.1636 28.4713V28.4713Z" fill="#3F3D56"/>
<path d="M54.7838 30.1705C54.9929 30.1404 55.098 29.613 55.0186 28.9925C54.9392 28.3719 54.7052 27.8933 54.4961 27.9233C54.287 27.9534 54.1819 28.4808 54.2613 29.1013C54.3407 29.7219 54.5747 30.2005 54.7838 30.1705Z" fill="#3F3D56"/>
<path d="M54.3252 27.2548C54.5344 27.2248 54.6395 26.6974 54.5601 26.0768C54.4806 25.4563 54.2467 24.9776 54.0376 25.0077C53.8285 25.0378 53.7233 25.5652 53.8028 26.1857C53.8822 26.8062 54.1161 27.2849 54.3252 27.2548Z" fill="#3F3D56"/>
<path d="M57.2293 28.3888C57.4384 28.3587 57.5436 27.8313 57.4641 27.2107C57.3847 26.5902 57.1508 26.1115 56.9416 26.1416C56.7325 26.1717 56.6274 26.6991 56.7068 27.3196C56.7863 27.9402 57.0202 28.4188 57.2293 28.3888Z" fill="#3F3D56"/>
<path d="M43.6399 17.8841C42.8008 17.8815 41.9637 17.9678 41.1408 18.1417C40.2146 18.3377 39.2532 18.5726 38.3086 18.8787C36.8337 18.8026 35.7485 18.3976 35.5299 17.774C37.2494 16.7211 39.348 16.0424 41.7522 15.712C42.7527 15.5709 43.7642 15.5384 44.7709 15.6148C44.8775 15.681 44.9696 15.7704 45.0413 15.877C45.1129 15.9837 45.1625 16.1052 45.1866 16.2336C45.2585 16.7973 44.6517 17.3966 43.6399 17.8841Z" fill="#1F1F1F"/>
<path d="M33.8822 33.6433L32.7053 28.4583C32.6634 28.2713 32.5702 28.1015 32.4375 27.9704C32.3048 27.8393 32.1385 27.7526 31.9595 27.7213C31.9089 27.713 31.8578 27.7087 31.8066 27.7084C31.7345 27.7086 31.6627 27.7179 31.5926 27.7359L31.1372 27.8525C30.5507 28.0028 30.0445 28.3936 29.7296 28.939C29.4147 29.4844 29.3168 30.1399 29.4574 30.7617L29.9847 33.0878C30.1051 33.6354 30.3919 34.1259 30.8009 34.484C30.8672 34.5407 30.9366 34.5932 31.0088 34.6412C31.265 34.8113 31.5507 34.9254 31.8492 34.9766C32.1477 35.0278 32.4528 35.0151 32.7466 34.9392L33.2006 34.8226C33.3206 34.7929 33.4335 34.7372 33.5322 34.659C33.679 34.5456 33.7907 34.3884 33.853 34.2076C33.9153 34.0267 33.9255 33.8303 33.8822 33.6433Z" fill="#F29F05"/>
<path d="M31.415 32.6785C31.6202 32.6262 31.6744 32.0902 31.5362 31.4814C31.3979 30.8726 31.1195 30.4214 30.9144 30.4737C30.7092 30.5261 30.6549 31.062 30.7932 31.6709C30.9314 32.2797 31.2098 32.7309 31.415 32.6785Z" fill="#3F3D56"/>
<path d="M29.8866 33.1645C30.0917 33.1122 30.146 32.5762 30.0077 31.9674C29.8695 31.3585 29.5911 30.9074 29.3859 30.9597C29.1807 31.012 29.1265 31.548 29.2647 32.1568C29.403 32.7657 29.6814 33.2168 29.8866 33.1645Z" fill="#3F3D56"/>
<path d="M33.9571 33.6239L32.7802 28.4389C32.7344 28.2365 32.6332 28.0529 32.4894 27.9112C32.3456 27.7694 32.1655 27.6758 31.9717 27.642L33.5781 34.7238C33.7367 34.6006 33.8574 34.4305 33.9248 34.2347C33.9923 34.039 34.0035 33.8264 33.9571 33.6239V33.6239Z" fill="white"/>
<path d="M29.7233 29.7347C29.6909 29.5906 29.6299 29.4553 29.5445 29.3379C29.3791 29.792 29.3487 30.2888 29.4574 30.7617L29.9847 33.0877C30.1051 33.6354 30.3919 34.1259 30.8009 34.484L29.7233 29.7347Z" fill="#3F3D56"/>
</g>
<defs>
<clipPath id="clip0_46_582">
<rect width="130" height="120" fill="white"/>
</clipPath>
</defs>
</svg>
