<svg width="778" height="448" viewBox="0 0 778 448" fill="none" xmlns="http://www.w3.org/2000/svg">
<path d="M168.571 397.669C190.917 397.669 209.031 379.515 209.031 357.12C209.031 334.726 190.917 316.571 168.571 316.571C146.225 316.571 128.111 334.726 128.111 357.12C128.111 379.515 146.225 397.669 168.571 397.669Z" fill="#F2F2F2"/>
<path d="M175.15 391.735C197.496 391.735 215.61 373.581 215.61 351.186C215.61 328.792 197.496 310.637 175.15 310.637C152.804 310.637 134.69 328.792 134.69 351.186C134.69 373.581 152.804 391.735 175.15 391.735Z" fill="#F29F05"/>
<path d="M708.339 306.32H207.735V307.688H708.339V306.32Z" fill="#3F3D56"/>
<path d="M466.998 12.7664H289.315V9.09619H208.746V12.7664H30.33C28.7516 12.7664 27.1887 13.078 25.7305 13.6833C24.2723 14.2886 22.9474 15.1759 21.8313 16.2944C20.7152 17.4129 19.8299 18.7407 19.2259 20.2021C18.6219 21.6635 18.311 23.2299 18.311 24.8117V268.647C18.311 271.842 19.5773 274.906 21.8313 277.165C24.0853 279.424 27.1424 280.693 30.33 280.693H466.998C470.186 280.693 473.243 279.424 475.497 277.165C477.751 274.906 479.017 271.842 479.017 268.647V24.8117C479.017 23.2299 478.706 21.6635 478.102 20.2021C477.498 18.7407 476.613 17.4129 475.497 16.2944C474.381 15.1759 473.056 14.2886 471.598 13.6833C470.139 13.078 468.577 12.7664 466.998 12.7664V12.7664Z" fill="#1F1F1F"/>
<path d="M462.903 34.0537H34.4248V276.288H462.903V34.0537Z" fill="#F29F05"/>
<path d="M248.298 27.4473C250.725 27.4473 252.693 25.4755 252.693 23.0431C252.693 20.6107 250.725 18.6388 248.298 18.6388C245.871 18.6388 243.903 20.6107 243.903 23.0431C243.903 25.4755 245.871 27.4473 248.298 27.4473Z" fill="#F29F05"/>
<path opacity="0.1" d="M340.366 276.289H34.4249V34.054L340.366 276.289Z" fill="black"/>
<path d="M101.469 258.162C124.216 258.162 142.656 239.682 142.656 216.885C142.656 194.088 124.216 175.608 101.469 175.608C78.7221 175.608 60.2822 194.088 60.2822 216.885C60.2822 239.682 78.7221 258.162 101.469 258.162Z" fill="#F2F2F2"/>
<path d="M388.298 164.693H348.274V173.074H388.298V164.693Z" fill="#1F1F1F"/>
<path d="M436.686 99.4357H299.886V103.028H436.686V99.4357Z" fill="#1F1F1F"/>
<path d="M436.686 110.811H299.886V114.403H436.686V110.811Z" fill="#1F1F1F"/>
<path d="M436.686 122.186H299.886V125.778H436.686V122.186Z" fill="#1F1F1F"/>
<path d="M436.686 133.561H299.886V137.153H436.686V133.561Z" fill="#1F1F1F"/>
<path d="M436.686 144.936H299.886V148.528H436.686V144.936Z" fill="#1F1F1F"/>
<path d="M436.686 38.9682H419.959V55.7315H436.686V38.9682Z" fill="#F2F2F2"/>
<path d="M444.452 63.5144H424.141V43.1589H444.452V63.5144ZM425.024 62.6294H443.569V44.044H425.024V62.6294Z" fill="#3F3D56"/>
<path d="M491.048 271.884H449.231V268.865C449.231 268.786 449.216 268.708 449.186 268.636C449.156 268.563 449.112 268.497 449.056 268.441C449.001 268.386 448.935 268.342 448.862 268.312C448.79 268.281 448.712 268.266 448.634 268.266H434.297C434.218 268.266 434.141 268.281 434.068 268.312C433.996 268.342 433.93 268.386 433.874 268.441C433.819 268.497 433.775 268.563 433.745 268.636C433.715 268.708 433.699 268.786 433.699 268.865V271.884H424.739V268.865C424.739 268.786 424.723 268.708 424.693 268.636C424.663 268.563 424.619 268.497 424.564 268.441C424.508 268.386 424.442 268.342 424.37 268.312C424.297 268.281 424.22 268.266 424.141 268.266H409.804C409.726 268.266 409.648 268.281 409.575 268.312C409.503 268.342 409.437 268.386 409.382 268.441C409.326 268.497 409.282 268.563 409.252 268.636C409.222 268.708 409.207 268.786 409.207 268.865V271.884H400.246V268.865C400.246 268.786 400.23 268.708 400.2 268.636C400.17 268.563 400.126 268.497 400.071 268.441C400.015 268.386 399.95 268.342 399.877 268.312C399.805 268.281 399.727 268.266 399.648 268.266H385.311C385.233 268.266 385.155 268.281 385.083 268.312C385.01 268.342 384.944 268.386 384.889 268.441C384.833 268.497 384.789 268.563 384.759 268.636C384.729 268.708 384.714 268.786 384.714 268.865V271.884H375.753V268.865C375.753 268.786 375.738 268.708 375.708 268.636C375.678 268.563 375.634 268.497 375.578 268.441C375.523 268.386 375.457 268.342 375.384 268.312C375.312 268.281 375.234 268.266 375.156 268.266H360.819C360.74 268.266 360.663 268.281 360.59 268.312C360.518 268.342 360.452 268.386 360.396 268.441C360.341 268.497 360.297 268.563 360.267 268.636C360.237 268.708 360.221 268.786 360.221 268.865V271.884H351.261V268.865C351.261 268.786 351.245 268.708 351.215 268.636C351.185 268.563 351.141 268.497 351.086 268.441C351.03 268.386 350.964 268.342 350.892 268.312C350.819 268.281 350.742 268.266 350.663 268.266H336.326C336.248 268.266 336.17 268.281 336.097 268.312C336.025 268.342 335.959 268.386 335.904 268.441C335.848 268.497 335.804 268.563 335.774 268.636C335.744 268.708 335.729 268.786 335.729 268.865V271.884H326.768V268.865C326.768 268.786 326.752 268.708 326.722 268.636C326.692 268.563 326.648 268.497 326.593 268.441C326.537 268.386 326.472 268.342 326.399 268.312C326.327 268.281 326.249 268.266 326.171 268.266H311.833C311.755 268.266 311.677 268.281 311.605 268.312C311.532 268.342 311.466 268.386 311.411 268.441C311.355 268.497 311.311 268.563 311.281 268.636C311.251 268.708 311.236 268.786 311.236 268.865V271.884H302.275V268.865C302.275 268.786 302.26 268.708 302.23 268.636C302.2 268.563 302.156 268.497 302.1 268.441C302.045 268.386 301.979 268.342 301.906 268.312C301.834 268.281 301.756 268.266 301.678 268.266H189.37C189.292 268.266 189.214 268.281 189.141 268.312C189.069 268.342 189.003 268.386 188.948 268.441C188.892 268.497 188.848 268.563 188.818 268.636C188.788 268.708 188.773 268.786 188.773 268.865V271.884H179.812V268.865C179.812 268.786 179.797 268.708 179.766 268.636C179.736 268.563 179.692 268.497 179.637 268.441C179.582 268.386 179.516 268.342 179.443 268.312C179.371 268.281 179.293 268.266 179.215 268.266H164.877C164.799 268.266 164.721 268.281 164.649 268.312C164.576 268.342 164.51 268.386 164.455 268.441C164.4 268.497 164.356 268.563 164.325 268.636C164.295 268.708 164.28 268.786 164.28 268.865V271.884H155.319V268.865C155.319 268.786 155.304 268.708 155.274 268.636C155.244 268.563 155.2 268.497 155.144 268.441C155.089 268.386 155.023 268.342 154.951 268.312C154.878 268.281 154.8 268.266 154.722 268.266H140.385C140.306 268.266 140.229 268.281 140.156 268.312C140.084 268.342 140.018 268.386 139.962 268.441C139.907 268.497 139.863 268.563 139.833 268.636C139.803 268.708 139.787 268.786 139.787 268.865V271.884H130.827V268.865C130.827 268.786 130.811 268.708 130.781 268.636C130.751 268.563 130.707 268.497 130.652 268.441C130.596 268.386 130.53 268.342 130.458 268.312C130.385 268.281 130.308 268.266 130.229 268.266H115.892C115.814 268.266 115.736 268.281 115.663 268.312C115.591 268.342 115.525 268.386 115.47 268.441C115.414 268.497 115.37 268.563 115.34 268.636C115.31 268.708 115.295 268.786 115.295 268.865V271.884H106.334V268.865C106.334 268.786 106.319 268.708 106.289 268.636C106.259 268.563 106.215 268.497 106.159 268.441C106.104 268.386 106.038 268.342 105.965 268.312C105.893 268.281 105.815 268.266 105.737 268.266H91.3994C91.321 268.266 91.2433 268.281 91.1708 268.312C91.0983 268.342 91.0325 268.386 90.977 268.441C90.9215 268.497 90.8775 268.563 90.8475 268.636C90.8175 268.708 90.802 268.786 90.802 268.865V271.884H81.8413V268.865C81.8413 268.786 81.8259 268.708 81.7959 268.636C81.7658 268.563 81.7218 268.497 81.6664 268.441C81.6109 268.386 81.545 268.342 81.4725 268.312C81.4001 268.281 81.3224 268.266 81.2439 268.266H66.9068C66.8283 268.266 66.7506 268.281 66.6782 268.312C66.6057 268.342 66.5398 268.386 66.4844 268.441C66.4289 268.497 66.3849 268.563 66.3549 268.636C66.3248 268.708 66.3094 268.786 66.3094 268.865V271.884H57.3487V268.865C57.3487 268.786 57.3332 268.708 57.3032 268.636C57.2732 268.563 57.2292 268.497 57.1737 268.441C57.1182 268.386 57.0524 268.342 56.9799 268.312C56.9074 268.281 56.8297 268.266 56.7513 268.266H42.4141C42.3357 268.266 42.258 268.281 42.1855 268.312C42.113 268.342 42.0472 268.386 41.9917 268.441C41.9362 268.497 41.8922 268.563 41.8622 268.636C41.8322 268.708 41.8167 268.786 41.8167 268.865V271.884H14.3372C10.5347 271.884 6.888 273.398 4.19926 276.093C1.51052 278.787 3.6226e-06 282.442 0 286.253V292.75C1.08678e-05 296.561 1.51053 300.215 4.19927 302.91C6.88801 305.604 10.5347 307.118 14.3372 307.118H491.048C494.85 307.118 498.497 305.604 501.186 302.91C503.875 300.215 505.385 296.561 505.385 292.75V286.253C505.385 282.442 503.875 278.787 501.186 276.093C498.497 273.398 494.85 271.884 491.048 271.884Z" fill="#1F1F1F"/>
<path d="M111.438 242.666C101.173 242.666 91.1375 239.615 82.6018 233.899C74.0662 228.184 67.4135 220.059 63.4849 210.554C59.5564 201.049 58.5285 190.59 60.5313 180.5C62.534 170.409 67.4774 161.141 74.7364 153.866C81.9954 146.591 91.2439 141.637 101.312 139.63C111.381 137.622 121.817 138.653 131.301 142.59C140.786 146.527 148.892 153.194 154.595 161.748C160.299 170.303 163.343 180.36 163.343 190.648C163.327 204.439 157.854 217.661 148.123 227.413C138.393 237.165 125.2 242.65 111.438 242.666ZM111.438 139.999C101.443 139.999 91.6717 142.969 83.3607 148.535C75.0497 154.1 68.572 162.011 64.7469 171.265C60.9217 180.52 59.9209 190.704 61.8709 200.529C63.821 210.354 68.6343 219.379 75.7022 226.462C82.7702 233.546 91.7753 238.37 101.579 240.324C111.382 242.278 121.544 241.275 130.779 237.442C140.013 233.608 147.906 227.116 153.46 218.787C159.013 210.458 161.977 200.665 161.977 190.648C161.962 177.22 156.632 164.346 147.158 154.851C137.683 145.355 124.837 140.014 111.438 139.999V139.999Z" fill="#3F3D56"/>
<path d="M574.48 22.2741H400.327V23.643H574.48V22.2741Z" fill="#3F3D56"/>
<path d="M778 383.662H277.396V385.031H778V383.662Z" fill="#3F3D56"/>
<path d="M305.738 446.631H131.586V448H305.738V446.631Z" fill="#3F3D56"/>
<path d="M340.793 376.446H321.671V395.61H340.793V376.446Z" fill="#F29F05"/>
<path d="M352.404 384.659H329.183V361.388H352.404V384.659ZM330.193 383.647H351.394V362.4H330.193V383.647Z" fill="#3F3D56"/>
<path d="M562.753 15.0578H543.63V34.2223H562.753V15.0578Z" fill="#F29F05"/>
<path d="M574.363 23.2712H551.143V0H574.363V23.2712ZM552.152 22.2594H573.354V1.01179H552.152V22.2594Z" fill="#3F3D56"/>
<path d="M755.346 376.446H736.223V395.61H755.346V376.446Z" fill="#F29F05"/>
<path d="M766.956 384.659H743.736V361.388H766.956V384.659ZM744.745 383.647H765.946V362.4H744.745V383.647Z" fill="#3F3D56"/>
<path d="M721.998 158.763H720.374V114.163C720.374 110.774 719.708 107.417 718.413 104.285C717.119 101.153 715.221 98.3078 712.83 95.9108C710.438 93.5138 707.599 91.6124 704.474 90.3152C701.349 89.018 697.999 88.3503 694.617 88.3503H600.333C596.95 88.3503 593.601 89.018 590.476 90.3152C587.351 91.6124 584.512 93.5138 582.12 95.9108C579.728 98.3078 577.831 101.153 576.537 104.285C575.242 107.417 574.576 110.774 574.576 114.163V358.84C574.576 362.23 575.242 365.587 576.537 368.719C577.831 371.85 579.728 374.696 582.12 377.093C584.512 379.49 587.351 381.391 590.476 382.689C593.601 383.986 596.95 384.653 600.333 384.653H694.617C697.999 384.653 701.349 383.986 704.474 382.689C707.599 381.391 710.438 379.49 712.83 377.093C715.222 374.696 717.119 371.85 718.413 368.719C719.708 365.587 720.374 362.23 720.374 358.84V190.51H721.998V158.763Z" fill="#1F1F1F"/>
<path d="M714.889 115.681V360.001C714.89 365.113 712.864 370.017 709.257 373.633C705.65 377.249 700.758 379.281 695.657 379.282H600.918C595.816 379.281 590.924 377.249 587.317 373.633C583.71 370.017 581.685 365.113 581.686 360.001V115.681C581.686 110.569 583.713 105.667 587.319 102.052C590.926 98.4379 595.817 96.4071 600.918 96.4066H612.412C611.846 97.7971 611.63 99.3057 611.783 100.799C611.936 102.293 612.454 103.726 613.29 104.973C614.126 106.219 615.255 107.24 616.577 107.946C617.9 108.652 619.375 109.021 620.873 109.021H674.888C676.387 109.021 677.862 108.652 679.184 107.946C680.507 107.24 681.636 106.219 682.472 104.973C683.308 103.726 683.825 102.293 683.978 100.799C684.131 99.3057 683.916 97.7971 683.35 96.4066H695.657C700.757 96.4071 705.649 98.4379 709.255 102.052C712.862 105.667 714.888 110.569 714.889 115.681V115.681Z" fill="#F29F05"/>
<path d="M662.398 257.501H634.176V265.883H662.398V257.501Z" fill="#1F1F1F"/>
<path d="M696.517 192.244H600.057V195.836H696.517V192.244Z" fill="#1F1F1F"/>
<path d="M696.517 203.619H600.057V207.211H696.517V203.619Z" fill="#1F1F1F"/>
<path d="M696.517 214.994H600.057V218.586H696.517V214.994Z" fill="#1F1F1F"/>
<path d="M696.517 226.369H600.057V229.961H696.517V226.369Z" fill="#1F1F1F"/>
<path d="M696.517 237.744H600.057V241.336H696.517V237.744Z" fill="#1F1F1F"/>
<path d="M651.657 144.541H634.93V161.304H651.657V144.541Z" fill="#F2F2F2"/>
<path d="M641.333 148.732V169.088H661.644V148.732H641.333ZM660.763 168.205H642.214V149.615H660.763V168.205Z" fill="#3F3D56"/>
<path opacity="0.1" d="M714.889 333.91V360.001C714.89 365.113 712.864 370.017 709.257 373.633C705.65 377.249 700.758 379.281 695.657 379.282H600.918C595.816 379.281 590.924 377.249 587.317 373.633C583.71 370.017 581.685 365.113 581.686 360.001V228.443L661.502 291.638L662.868 292.72L677.716 304.471L679.102 305.573L714.889 333.91Z" fill="black"/>
<path d="M640.092 371.364C656.638 371.364 670.051 357.921 670.051 341.338C670.051 324.756 656.638 311.313 640.092 311.313C623.545 311.313 610.132 324.756 610.132 341.338C610.132 357.921 623.545 371.364 640.092 371.364Z" fill="#F2F2F2"/>
<path d="M218.662 448C206.91 448 195.423 444.508 185.652 437.965C175.881 431.421 168.265 422.121 163.768 411.241C159.271 400.36 158.094 388.387 160.387 376.836C162.679 365.285 168.338 354.675 176.648 346.347C184.957 338.019 195.545 332.348 207.07 330.05C218.596 327.753 230.543 328.932 241.4 333.439C252.257 337.946 261.536 345.578 268.065 355.371C274.594 365.163 278.079 376.676 278.079 388.453C278.061 404.24 271.795 419.376 260.656 430.539C249.517 441.703 234.415 447.982 218.662 448ZM218.662 330.275C207.181 330.275 195.957 333.687 186.411 340.08C176.864 346.473 169.424 355.559 165.03 366.189C160.636 376.82 159.486 388.518 161.726 399.803C163.966 411.089 169.495 421.455 177.614 429.591C185.732 437.727 196.076 443.268 207.337 445.513C218.598 447.758 230.27 446.606 240.877 442.203C251.485 437.799 260.551 430.342 266.93 420.775C273.308 411.208 276.713 399.96 276.713 388.453C276.696 373.029 270.574 358.241 259.691 347.334C248.808 336.428 234.053 330.293 218.662 330.275V330.275Z" fill="#3F3D56"/>
<path d="M648.922 364.498C641.493 364.498 634.231 362.29 628.054 358.153C621.877 354.017 617.062 348.138 614.219 341.259C611.376 334.38 610.632 326.811 612.082 319.509C613.531 312.207 617.109 305.499 622.362 300.234C627.615 294.97 634.308 291.384 641.594 289.932C648.881 288.479 656.433 289.225 663.297 292.074C670.16 294.923 676.027 299.748 680.154 305.939C684.282 312.129 686.485 319.408 686.485 326.853C686.473 336.833 682.512 346.402 675.47 353.459C668.429 360.517 658.881 364.486 648.922 364.498V364.498ZM648.922 290.577C641.763 290.577 634.765 292.705 628.813 296.691C622.86 300.677 618.221 306.342 615.481 312.971C612.741 319.599 612.025 326.893 613.421 333.93C614.818 340.967 618.265 347.431 623.328 352.504C628.39 357.577 634.839 361.032 641.861 362.432C648.882 363.831 656.16 363.113 662.774 360.367C669.388 357.622 675.041 352.972 679.019 347.007C682.996 341.041 685.119 334.028 685.119 326.853C685.108 317.235 681.291 308.015 674.505 301.214C667.719 294.413 658.519 290.588 648.922 290.577Z" fill="#1F1F1F"/>
</svg>
