<svg width="445" height="359" viewBox="0 0 445 359" fill="none" xmlns="http://www.w3.org/2000/svg">
<path d="M246.531 54.8635L250.164 47L252.083 54.6018L260 54.2286L253.247 59.216L255.082 66.4857L249.289 62.1397L240 69L244.744 58.7306L240 55.1714L246.531 54.8635Z" fill="#F2CB05"/>
<path d="M307.531 159.864L311.164 152L313.083 159.602L321 159.229L314.247 164.216L316.082 171.486L310.289 167.14L301 174L305.744 163.731L301 160.171L307.531 159.864Z" fill="#F2CB05"/>
<path d="M6.531 203.864L10.1639 196L12.0826 203.602L20 203.229L13.2472 208.216L15.082 215.486L9.28866 211.14L0 218L4.74442 207.731L0 204.171L6.531 203.864Z" fill="#F2CB05"/>
<path d="M164.531 7.86354L168.164 0L170.083 7.60182L178 7.22857L171.247 12.216L173.082 19.4857L167.289 15.1397L158 22L162.744 11.7306L158 8.17143L164.531 7.86354Z" fill="#F2CB05"/>
<path d="M123.531 268.864L127.164 261L129.083 268.602L137 268.229L130.247 273.216L132.082 280.486L126.289 276.14L117 283L121.744 272.731L117 269.171L123.531 268.864Z" fill="#F2CB05"/>
<path d="M321.531 32.8635L325.164 25L327.083 32.6018L335 32.2286L328.247 37.216L330.082 44.4857L324.289 40.1397L315 47L319.744 36.7306L315 33.1714L321.531 32.8635Z" fill="#F2CB05"/>
<circle cx="124" cy="105" r="47" fill="#F28705"/>
<circle cx="119.5" cy="100.5" r="42.5" fill="#F2CB05"/>
<circle cx="123.799" cy="91.7987" r="4" transform="rotate(-61.1799 123.799 91.7987)" fill="#F28705"/>
<circle cx="123.901" cy="91.0846" r="3.5" transform="rotate(-61.1799 123.901 91.0846)" fill="#F2CB05"/>
<circle cx="287" cy="238" r="4" fill="#F2CB05"/>
<circle cx="287" cy="238" r="4" fill="#F2CB05"/>
<circle cx="287" cy="238" r="4" fill="#F2CB05"/>
<circle cx="287" cy="238" r="4" fill="#F2CB05"/>
<circle cx="287" cy="238" r="4" fill="#F2CB05"/>
<circle cx="287" cy="238" r="4" fill="#F2CB05"/>
<circle cx="287" cy="238" r="4" fill="#F2CB05"/>
<circle cx="287" cy="238" r="4" fill="#F2CB05"/>
<circle cx="218" cy="238" r="4" fill="#F2CB05"/>
<circle cx="218" cy="238" r="4" fill="#F2CB05"/>
<circle cx="218" cy="238" r="4" fill="#F2CB05"/>
<circle cx="218" cy="238" r="4" fill="#F2CB05"/>
<circle cx="218" cy="238" r="4" fill="#F2CB05"/>
<circle cx="218" cy="238" r="4" fill="#F2CB05"/>
<circle cx="218" cy="238" r="4" fill="#F2CB05"/>
<circle cx="218" cy="238" r="4" fill="#F2CB05"/>
<circle cx="58" cy="163" r="4" fill="#F2CB05"/>
<circle cx="58" cy="163" r="4" fill="#F2CB05"/>
<circle cx="58" cy="163" r="4" fill="#F2CB05"/>
<circle cx="58" cy="163" r="4" fill="#F2CB05"/>
<circle cx="58" cy="163" r="4" fill="#F2CB05"/>
<circle cx="58" cy="163" r="4" fill="#F2CB05"/>
<circle cx="58" cy="163" r="4" fill="#F2CB05"/>
<circle cx="58" cy="163" r="4" fill="#F2CB05"/>
<circle cx="360" cy="268" r="4" fill="#F2CB05"/>
<circle cx="360" cy="268" r="4" fill="#F2CB05"/>
<circle cx="360" cy="268" r="4" fill="#F2CB05"/>
<circle cx="360" cy="268" r="4" fill="#F2CB05"/>
<circle cx="360" cy="268" r="4" fill="#F2CB05"/>
<circle cx="360" cy="268" r="4" fill="#F2CB05"/>
<circle cx="360" cy="268" r="4" fill="#F2CB05"/>
<circle cx="360" cy="268" r="4" fill="#F2CB05"/>
<circle cx="81" cy="34" r="4" fill="#F2CB05"/>
<circle cx="81" cy="34" r="4" fill="#F2CB05"/>
<circle cx="81" cy="34" r="4" fill="#F2CB05"/>
<circle cx="81" cy="34" r="4" fill="#F2CB05"/>
<circle cx="81" cy="34" r="4" fill="#F2CB05"/>
<circle cx="81" cy="34" r="4" fill="#F2CB05"/>
<circle cx="81" cy="34" r="4" fill="#F2CB05"/>
<circle cx="81" cy="34" r="4" fill="#F2CB05"/>
<circle cx="394" cy="73" r="4" fill="#F2CB05"/>
<circle cx="394" cy="73" r="4" fill="#F2CB05"/>
<circle cx="394" cy="73" r="4" fill="#F2CB05"/>
<circle cx="394" cy="73" r="4" fill="#F2CB05"/>
<circle cx="394" cy="73" r="4" fill="#F2CB05"/>
<circle cx="394" cy="73" r="4" fill="#F2CB05"/>
<circle cx="394" cy="73" r="4" fill="#F2CB05"/>
<circle cx="394" cy="73" r="4" fill="#F2CB05"/>
<circle cx="50" cy="338" r="4" fill="#F2CB05"/>
<circle cx="50" cy="338" r="4" fill="#F2CB05"/>
<circle cx="50" cy="338" r="4" fill="#F2CB05"/>
<circle cx="50" cy="338" r="4" fill="#F2CB05"/>
<circle cx="50" cy="338" r="4" fill="#F2CB05"/>
<circle cx="50" cy="338" r="4" fill="#F2CB05"/>
<circle cx="50" cy="338" r="4" fill="#F2CB05"/>
<circle cx="50" cy="338" r="4" fill="#F2CB05"/>
<circle cx="441" cy="167" r="4" fill="#F2CB05"/>
<circle cx="441" cy="167" r="4" fill="#F2CB05"/>
<circle cx="441" cy="167" r="4" fill="#F2CB05"/>
<circle cx="441" cy="167" r="4" fill="#F2CB05"/>
<circle cx="441" cy="167" r="4" fill="#F2CB05"/>
<circle cx="441" cy="167" r="4" fill="#F2CB05"/>
<circle cx="441" cy="167" r="4" fill="#F2CB05"/>
<circle cx="441" cy="167" r="4" fill="#F2CB05"/>
<circle cx="250" cy="298" r="4" fill="#F2CB05"/>
<circle cx="250" cy="298" r="4" fill="#F2CB05"/>
<circle cx="250" cy="298" r="4" fill="#F2CB05"/>
<circle cx="250" cy="298" r="4" fill="#F2CB05"/>
<circle cx="250" cy="298" r="4" fill="#F2CB05"/>
<circle cx="250" cy="298" r="4" fill="#F2CB05"/>
<circle cx="250" cy="298" r="4" fill="#F2CB05"/>
<circle cx="250" cy="298" r="4" fill="#F2CB05"/>
<circle cx="339" cy="355" r="4" fill="#F2CB05"/>
<circle cx="339" cy="355" r="4" fill="#F2CB05"/>
<circle cx="339" cy="355" r="4" fill="#F2CB05"/>
<circle cx="339" cy="355" r="4" fill="#F2CB05"/>
<circle cx="339" cy="355" r="4" fill="#F2CB05"/>
<circle cx="339" cy="355" r="4" fill="#F2CB05"/>
<circle cx="339" cy="355" r="4" fill="#F2CB05"/>
<circle cx="339" cy="355" r="4" fill="#F2CB05"/>
<circle cx="99" cy="223" r="4" fill="#F2CB05"/>
<circle cx="99" cy="223" r="4" fill="#F2CB05"/>
<circle cx="99" cy="223" r="4" fill="#F2CB05"/>
<circle cx="99" cy="223" r="4" fill="#F2CB05"/>
<circle cx="99" cy="223" r="4" fill="#F2CB05"/>
<circle cx="99" cy="223" r="4" fill="#F2CB05"/>
<circle cx="99" cy="223" r="4" fill="#F2CB05"/>
<circle cx="99" cy="223" r="4" fill="#F2CB05"/>
</svg>
