<svg width="130" height="120" viewBox="0 0 130 120" fill="none" xmlns="http://www.w3.org/2000/svg">
<g clip-path="url(#clip0_47_891)">
<path d="M118.113 119.989L118.105 119.906C117.981 118.499 118.124 117.078 118.523 115.741C118.923 114.405 119.57 113.185 120.42 112.166C120.901 111.599 121.441 111.104 122.029 110.693L122.085 110.653L122.103 110.726C122.323 111.593 122.616 112.468 122.75 112.855L123.045 110.078L123.109 110.046C123.402 109.898 123.726 109.854 124.041 109.92C124.355 109.987 124.645 110.16 124.874 110.418C125.111 110.675 125.275 111.008 125.347 111.374C125.418 111.74 125.393 112.123 125.274 112.472C125.168 112.792 125.067 113.124 124.968 113.446C124.63 114.551 124.28 115.694 123.688 116.629C123.234 117.332 122.65 117.91 121.978 118.319C121.306 118.728 120.564 118.959 119.804 118.994L118.113 119.989Z" fill="#1F1F1F"/>
<path d="M57.3049 118.994C56.5458 118.959 55.8031 118.728 55.1312 118.319C54.4593 117.91 53.8751 117.332 53.4213 116.629C52.8296 115.694 52.4797 114.551 52.1413 113.446C52.0428 113.124 51.9409 112.792 51.8353 112.472C51.7167 112.123 51.6914 111.74 51.7628 111.374C51.8341 111.008 51.9988 110.675 52.2356 110.418C52.4639 110.16 52.7539 109.987 53.0684 109.92C53.3829 109.854 53.7073 109.898 54 110.046L54.0638 110.078L54.3598 112.855C54.4938 112.468 54.7861 111.593 55.006 110.726L55.0244 110.653L55.0804 110.693C55.6681 111.104 56.2087 111.599 56.6892 112.166C57.5389 113.185 58.1861 114.405 58.5859 115.741C58.9857 117.078 59.1285 118.499 59.0043 119.906L58.9965 119.989L57.3049 118.994Z" fill="#1F1F1F"/>
<path d="M38.041 62.0904C38.041 62.0904 37.2551 54.7593 35.4845 52.5254L31.317 54.3879L34.6077 64.0772L41.2663 73.7694C41.2998 74.1289 41.4152 74.4718 41.6006 74.7632C41.7861 75.0546 42.0351 75.2842 42.3224 75.4286C42.6096 75.5731 42.9248 75.6273 43.2361 75.5857C43.5473 75.5441 43.8435 75.4082 44.0945 75.1918C44.3456 74.9755 44.5425 74.6863 44.6654 74.3537C44.7883 74.0211 44.8327 73.6569 44.7942 73.2981C44.7556 72.9393 44.6355 72.5986 44.446 72.3107C44.2564 72.0227 44.0043 71.7978 43.715 71.6587L38.041 62.0904Z" fill="#F23030"/>
<path d="M16.7999 66.1759C16.7999 66.1759 19.6504 59.5617 19.2421 56.5712L14.876 55.4707L12.9866 65.6465L13.9044 77.9694C13.7604 78.2906 13.6927 78.65 13.708 79.0111C13.7233 79.3722 13.8212 79.7222 13.9916 80.0256C14.1621 80.329 14.3991 80.5749 14.6785 80.7385C14.958 80.902 15.27 80.9773 15.5828 80.9567C15.8956 80.9361 16.1982 80.8204 16.4597 80.6212C16.7212 80.4221 16.9324 80.1467 17.0719 79.8229C17.2113 79.4991 17.2741 79.1385 17.2537 78.7777C17.2333 78.4169 17.1306 78.0688 16.9559 77.7686L16.7999 66.1759Z" fill="#F23030"/>
<path d="M21.8423 116.861H23.9078L24.8903 107.667L21.8419 107.667L21.8423 116.861Z" fill="#F23030"/>
<path d="M21.7695 119.347L28.1212 119.347V119.254C28.1212 118.498 27.8607 117.772 27.397 117.237C26.9334 116.702 26.3046 116.401 25.6489 116.401H25.6488L24.4886 115.386L22.3239 116.402L21.7694 116.402L21.7695 119.347Z" fill="#1F1F1F"/>
<path d="M27.5012 115.512L29.5158 116.037L32.2306 107.32L29.2569 106.545L27.5012 115.512Z" fill="#F23030"/>
<path d="M26.9553 117.919L33.1508 119.534L33.1685 119.444C33.313 118.706 33.1975 117.932 32.8475 117.292C32.4974 116.652 31.9415 116.199 31.302 116.032L31.3018 116.032L30.3642 114.747L28.0587 115.187L27.5178 115.046L26.9553 117.919Z" fill="#1F1F1F"/>
<path d="M36.8054 91.8073C35.5787 96.3166 32.4413 108.285 32.4413 108.285C32.4413 108.285 29.7709 109.055 28.9285 108.285C28.0861 107.516 29.1352 104.947 29.1352 104.947C28.5798 102.069 29.8295 99.1603 29.9106 96.3701C29.7421 95.1992 30.6353 94.1939 30.717 93.0771C30.1266 92.5586 27.2542 84.4224 26.6684 82.1489C26.9695 89.0764 26.2423 99.4631 25.4157 106.14C25.0245 109.3 24.479 108.376 21.6963 108.524C20.4556 108.099 20.6632 104.947 20.6632 104.947V102.324C20.06 99.3873 20.0521 98.7529 20.2499 97.3171C20.1592 95.7931 19.0224 80.0363 18.0137 74.7033C17.3414 70.4551 25.5803 69.5199 27.9497 68.5069C31.9034 66.3088 31.2361 69.4338 33.3183 72.3125C35.326 77.2748 36.5085 86.1361 36.8054 91.8073Z" fill="#1F1F1F"/>
<path d="M28.8734 45.7401L26.8744 42.4429H23.3617L20.2622 45.7811L20.0016 75.4402L34.0279 77.2548L28.8734 45.7401Z" fill="#F23030"/>
<path d="M27.4836 43.2178L33.0492 46.1569L34.1066 65.0949C34.1066 65.0949 34.9991 67.5274 35.0701 67.767C35.1447 68.0183 35.2932 69.2586 35.2289 69.4649C35.0316 70.1305 34.9316 70.8294 34.9331 71.5328C34.9814 72.0727 35.481 73.0361 35.6116 73.5575C35.7017 73.9169 35.1398 75.1095 35.1398 75.1095C35.3704 75.5099 35.5219 75.964 35.5837 76.4395C35.6455 76.915 35.616 77.4003 35.4974 77.8612L35.3464 78.4477L32.4535 77.9708L31.2063 70.8945L31.0746 70.1476L30.9384 69.3747L30.832 68.7708L30.7373 68.2339L30.6579 67.7832L27.4836 43.2178Z" fill="#F29F05"/>
<path d="M29.5364 47.1105L33.0492 46.1567C34.744 48.4312 36.1211 52.9167 37.207 57.0033C37.2843 57.2942 37.2237 57.6959 37.4345 57.8688C37.8175 58.1831 38.046 58.5623 37.769 59.1707C37.6631 59.4032 37.896 59.6709 37.9577 59.9147C38.0096 60.12 37.939 60.4618 38.1109 60.5208C38.6024 60.6896 38.626 61.1744 38.4337 61.7892L34.301 64.1736L34.1832 63.9541L33.7191 63.0892L31.7217 59.367L29.5364 47.1105Z" fill="#F29F05"/>
<path d="M22.5351 43.3965L19.4113 46.6336C19.4113 46.6336 18.6804 60.3387 18.1957 65.5717C18.1751 65.7942 18.4441 66.3256 18.4235 66.5481L18.3025 67.8548L18.2114 68.8381C18.1786 69.1916 17.7825 72.7249 17.7825 72.7249L17.1627 73.2018C16.8991 74.5664 17.0465 75.9939 17.5805 77.2488L17.9891 78.2091L22.5108 77.6312L22.5351 43.3965Z" fill="#F29F05"/>
<path d="M20.6725 48.6643L19.4113 46.6338L15.4853 49.4951C14.619 52.2607 13.6688 57.0861 13.144 61.2826C13.1321 61.3776 13.1877 61.5377 13.109 61.5665C12.8263 61.67 12.7409 61.8337 13.0444 62.1172C13.0797 62.168 13.1058 62.2265 13.1211 62.2891C13.1365 62.3518 13.1408 62.4174 13.1338 62.482C13.1268 62.5466 13.1086 62.6089 13.0804 62.6653C13.0521 62.7217 13.0144 62.7709 12.9693 62.8102C12.6365 62.9927 12.3807 63.1731 12.9163 63.3496C13.2929 63.4737 12.8389 64.234 12.8111 64.6506L17.357 65.8428C17.7724 65.7049 17.8512 65.4242 17.63 65.0161C17.9723 64.8969 18.102 64.685 17.8624 64.3121L17.9748 63.9715C18.3567 63.9035 18.3514 63.7208 18.1382 63.4766L18.2932 63.0072L19.0101 60.8356L20.6725 48.6643Z" fill="#F29F05"/>
<path d="M24.622 41.5131C27.1735 41.5131 29.2419 39.1263 29.2419 36.182C29.2419 33.2378 27.1735 30.851 24.622 30.851C22.0705 30.851 20.0021 33.2378 20.0021 36.182C20.0021 39.1263 22.0705 41.5131 24.622 41.5131Z" fill="#F23030"/>
<path d="M19.9437 39.6172C19.9437 39.6172 20.9612 39.9391 21.5533 40.1184C21.5227 39.6099 21.3319 39.134 21.235 38.6366C21.1381 38.1392 21.1591 37.5542 21.4795 37.203C21.7998 36.8518 22.467 36.9886 22.5186 37.494C22.7896 36.8252 23.0612 36.1553 23.3333 35.4842C24.1092 37.3271 25.6955 35.7566 27.4252 36.2223C28.3076 36.4621 29.4135 36.3591 29.8797 35.4619C29.6177 35.2082 29.397 34.9026 29.2278 34.5596C29.4967 34.6506 29.7764 34.6915 30.0565 34.6807C30.0501 34.3598 29.977 34.0453 29.8433 33.7638C29.7097 33.4823 29.5194 33.2419 29.2884 33.0629C29.0397 32.8753 29.6554 32.2074 29.4383 31.9724C28.993 31.4926 28.6942 31.8184 28.4311 31.1859C28.2615 30.7949 28.0001 30.4666 27.6768 30.2385C27.3534 30.0104 26.9811 29.8916 26.6021 29.8956C25.8461 29.916 24.4913 29.9076 24.198 30.7114C23.2631 30.0052 21.9618 30.2047 21.048 30.9455C20.2884 31.5589 19.424 33.4129 19.2332 34.4595C19.0425 35.5061 19.4629 38.7051 19.9437 39.6172Z" fill="#1F1F1F"/>
<path d="M40.9934 63.1621C40.9144 63.1621 40.8362 63.181 40.7639 63.2176C40.6915 63.2542 40.6265 63.3077 40.573 63.3748C40.5195 63.4418 40.4786 63.5209 40.4529 63.6071C40.4272 63.6934 40.4173 63.7848 40.4237 63.8756C41.2964 66.4783 41.1782 69.491 41.0665 72.9C41.079 73.0647 41.1443 73.2181 41.2497 73.3301C41.3551 73.4421 41.4929 73.5046 41.6362 73.5055H45.3237C45.467 73.5046 45.6048 73.4421 45.7102 73.3301C45.8155 73.2181 45.8809 73.0647 45.8933 72.9C45.5938 69.5883 45.7554 66.5491 46.5361 63.8756C46.5426 63.7848 46.5327 63.6934 46.507 63.6071C46.4813 63.5209 46.4404 63.4418 46.3869 63.3748C46.3333 63.3077 46.2683 63.2542 46.196 63.2176C46.1236 63.181 46.0455 63.1621 45.9665 63.1621H40.9934Z" fill="#1F1F1F"/>
<path d="M46.8314 64.365L46.5563 62.8571C46.5312 62.7199 46.4661 62.5969 46.3718 62.5086C46.2775 62.4203 46.1598 62.3721 46.0383 62.3721H44.3209C44.3142 62.3458 44.3032 62.3212 44.2886 62.2996L44.0978 62.0243C44.0798 61.9984 44.057 61.9774 44.0311 61.963C44.0051 61.9486 43.9767 61.9412 43.9479 61.9412H42.8875C42.8587 61.9412 42.8303 61.9486 42.8043 61.963C42.7784 61.9774 42.7556 61.9984 42.7376 62.0243L42.5467 62.2996C42.5321 62.3212 42.5212 62.3458 42.5145 62.3721H40.9215C40.8001 62.3721 40.6823 62.4203 40.588 62.5086C40.4937 62.5969 40.4286 62.7199 40.4036 62.8571L40.1285 64.365C40.1123 64.454 40.1134 64.546 40.1319 64.6343C40.1504 64.7227 40.1858 64.8051 40.2354 64.8757C40.285 64.9463 40.3477 65.0032 40.4188 65.0423C40.4899 65.0814 40.5677 65.1016 40.6464 65.1016C42.4035 66.1418 44.2893 66.1672 46.3134 65.1016C46.3922 65.1016 46.47 65.0814 46.5411 65.0423C46.6122 65.0032 46.6748 64.9463 46.7245 64.8757C46.7741 64.8051 46.8094 64.7227 46.8279 64.6343C46.8464 64.546 46.8476 64.454 46.8314 64.365V64.365Z" fill="#1F1F1F"/>
<path d="M93.605 65.1276C93.5149 64.7303 93.1947 63.5171 92.7879 64.0531C92.7275 64.1326 92.6797 63.8768 92.6237 63.7829C92.5267 63.6203 92.4679 62.9261 92.3652 62.7431C92.1563 62.3709 91.8969 62.4809 91.6845 62.0491C91.077 60.8142 90.5101 59.4043 90.2988 58.2127C89.6522 54.5649 90.5429 49.5768 90.5429 49.5768L90.2547 42.4715L88.1506 42.3899V42.2302C88.1506 41.9095 88.0402 41.6019 87.8436 41.3752C87.6471 41.1484 87.3806 41.021 87.1027 41.021H83.0953C82.8291 41.0211 82.5729 41.1383 82.3789 41.3486C82.1849 41.559 82.0676 41.8467 82.0508 42.1533L80.4008 42.0893L77.5432 52.566C77.5432 52.566 78.8767 56.5205 79.3472 60.3587C79.4749 61.3938 79.5058 62.4418 79.4393 63.4845C79.3756 64.5417 79.1962 65.5853 78.9054 66.5905C78.9054 66.5905 91.0279 69.5201 93.3984 66.7967C93.3984 66.7967 93.7669 65.8413 93.605 65.1276Z" fill="#F29F05"/>
<path d="M109.127 65.8912H106.263V12.6947C106.065 12.5254 105.864 12.3585 105.662 12.1939C105.621 12.163 105.581 12.1296 105.542 12.0986C104.322 11.1137 103.049 10.2201 101.73 9.42325C101.139 8.51082 100.493 7.64861 99.7956 6.84331C97.7391 4.47067 95.264 2.63693 92.5385 1.4668C89.813 0.296662 86.9011 -0.182415 84.0008 0.0621481C81.1006 0.306712 78.2799 1.26918 75.7308 2.88409C73.1817 4.499 70.9639 6.72847 69.2282 9.42087C68.3355 9.95974 67.4663 10.5415 66.6205 11.1663C66.5399 11.2259 66.4593 11.2855 66.3808 11.3451C66.3787 11.3475 66.3766 11.3475 66.3746 11.3499C66.2281 11.4604 66.1079 11.6115 66.0249 11.7893C65.9419 11.9671 65.8987 12.1661 65.8993 12.368V65.8912H61.8286C60.0309 65.8912 58.4791 67.5866 58.4873 69.661C58.4887 70.1341 58.568 70.6026 58.7208 71.0416C58.7796 71.2143 58.8508 71.381 58.9337 71.54C59.0392 71.7484 59.1617 71.9448 59.2994 72.1265C59.604 72.5274 59.9793 72.8486 60.4001 73.0686C60.821 73.2886 61.2777 73.4023 61.7398 73.4022H109.216C110.076 73.4009 110.902 73.0067 111.511 72.3057C112.12 71.6047 112.465 70.6539 112.468 69.661C112.477 67.5866 110.925 65.8912 109.127 65.8912ZM94.3549 65.8912H77.6857L75.388 29.2545H96.6527L94.3549 65.8912Z" fill="#F23030"/>
<path d="M97.0426 52.2832L104.166 44.9595L106.268 46.161L97.7241 56.5015L97.0426 52.2832Z" fill="#FFB6B6"/>
<path d="M89.0779 43.1989L90.2547 42.4714C90.2547 42.4714 93.1538 42.1861 94.337 46.116L97.4748 51.5849L102.561 46.4985L104.765 48.2591L98.3549 57.0868L95.6897 57.4798L89.9256 48.8721L89.0779 43.1989Z" fill="#F29F05"/>
<path d="M90.9959 36.9127C90.3527 41.943 87.1516 42.4732 84.808 39.8472C82.3562 37.0999 78.6201 40.3701 78.6201 36.9127C78.6201 33.4554 79.9733 27.3269 84.808 27.3269C89.8092 27.3269 91.4333 33.4924 90.9959 36.9127Z" fill="#1F1F1F"/>
<path d="M84.7873 39.8414C87.0869 39.8414 88.9511 37.6902 88.9511 35.0365C88.9511 32.3829 87.0869 30.2317 84.7873 30.2317C82.4876 30.2317 80.6234 32.3829 80.6234 35.0365C80.6234 37.6902 82.4876 39.8414 84.7873 39.8414Z" fill="#F23030"/>
<path d="M79.9763 34.5651H81.6232L82.3498 32.2176L82.495 34.5651H83.2822L83.706 33.1957L83.7908 34.5651C84.9917 35.8178 87.2153 35.3594 89.6396 34.5651C89.6396 33.8972 89.5256 33.2358 89.3041 32.6187C89.0826 32.0015 88.7579 31.4408 88.3486 30.9685C87.9393 30.4962 87.4534 30.1216 86.9186 29.8659C86.3838 29.6103 85.8107 29.4788 85.2318 29.4788H84.3841C83.8053 29.4788 83.2321 29.6103 82.6973 29.8659C82.1626 30.1216 81.6766 30.4962 81.2673 30.9685C80.858 31.4408 80.5334 32.0015 80.3118 32.6187C80.0903 33.2358 79.9763 33.8972 79.9763 34.5651V34.5651Z" fill="#1F1F1F"/>
<path d="M72.3157 69.0143C72.6452 69.0133 72.9673 68.9013 73.2425 68.6922C73.5177 68.4831 73.7341 68.1858 73.865 67.8369C73.996 67.4879 74.0359 67.1025 73.9798 66.7278C73.9237 66.3531 73.7741 66.0054 73.5494 65.7274L75.8672 58.6645L76.3418 56.3039C76.0787 56.1131 75.7814 55.994 75.4725 55.9554C75.1636 55.9168 74.8511 55.9598 74.5587 56.0811C74.2663 56.2024 74.0017 56.3989 73.7848 56.6557C73.5679 56.9125 73.4045 57.2228 73.3069 57.5632L70.8922 65.9852C70.724 66.2807 70.6283 66.6232 70.6154 66.9764C70.6025 67.3296 70.6728 67.6803 70.8188 67.991C70.9649 68.3018 71.1812 68.5611 71.4448 68.7412C71.7083 68.9214 72.0093 69.0158 72.3157 69.0143H72.3157Z" fill="#F23030"/>
<path d="M100.38 37.9412C100.301 37.9412 100.223 37.96 100.15 37.9966C100.078 38.0332 100.013 38.0868 99.9596 38.1538C99.9061 38.2209 99.8652 38.3 99.8395 38.3862C99.8138 38.4724 99.8039 38.5638 99.8103 38.6547C100.452 41.8469 100.724 44.8798 100.453 47.679C100.466 47.8437 100.531 47.9971 100.636 48.1091C100.742 48.2211 100.879 48.2837 101.023 48.2845H104.71C104.854 48.2837 104.991 48.2211 105.097 48.1091C105.202 47.9971 105.267 47.8437 105.28 47.679C105.075 44.6506 105.292 41.6038 105.923 38.6547C105.929 38.5638 105.919 38.4724 105.894 38.3862C105.868 38.3 105.827 38.2209 105.773 38.1538C105.72 38.0868 105.655 38.0332 105.583 37.9966C105.51 37.96 105.432 37.9412 105.353 37.9412H100.38Z" fill="#1F1F1F"/>
<path d="M106.218 39.1441L105.943 37.6361C105.918 37.499 105.853 37.376 105.758 37.2877C105.664 37.1994 105.546 37.1512 105.425 37.1512H103.707C103.701 37.1249 103.69 37.1003 103.675 37.0786L103.484 36.8034C103.466 36.7774 103.444 36.7565 103.418 36.7421C103.392 36.7277 103.363 36.7202 103.334 36.7202H102.274C102.245 36.7202 102.217 36.7277 102.191 36.7421C102.165 36.7565 102.142 36.7774 102.124 36.8034L101.933 37.0786C101.919 37.1003 101.908 37.1249 101.901 37.1512H100.308C100.187 37.1512 100.069 37.1994 99.9746 37.2877C99.8803 37.376 99.8152 37.499 99.7902 37.6361L99.5151 39.1441C99.4989 39.233 99.5 39.325 99.5185 39.4134C99.537 39.5017 99.5724 39.5842 99.622 39.6548C99.6716 39.7253 99.7343 39.7822 99.8054 39.8213C99.8765 39.8604 99.9542 39.8807 100.033 39.8807C101.933 40.7945 103.824 40.9748 105.7 39.8807C105.779 39.8807 105.857 39.8604 105.928 39.8213C105.999 39.7822 106.061 39.7253 106.111 39.6548C106.161 39.5842 106.196 39.5017 106.215 39.4134C106.233 39.325 106.234 39.233 106.218 39.1441Z" fill="#1F1F1F"/>
<path d="M83.6364 9.1637C83.5834 9.16369 83.5311 9.17635 83.4826 9.20088C83.4341 9.2254 83.3905 9.26126 83.3547 9.30619C83.3188 9.35112 83.2914 9.40414 83.2742 9.46191C83.257 9.51968 83.2503 9.58094 83.2546 9.64183L83.6854 15.6891C83.6937 15.7994 83.7375 15.9022 83.8081 15.9773C83.8787 16.0523 83.9711 16.0942 84.0671 16.0948H86.5381C86.6341 16.0942 86.7265 16.0523 86.7971 15.9773C86.8677 15.9022 86.9114 15.7994 86.9198 15.6891L87.3505 9.64183C87.3549 9.58094 87.3482 9.51968 87.331 9.46191C87.3138 9.40414 87.2864 9.35112 87.2505 9.30619C87.2147 9.26126 87.1711 9.2254 87.1226 9.20088C87.0741 9.17635 87.0218 9.16369 86.9688 9.1637H83.6364Z" fill="#1F1F1F"/>
<path d="M87.5484 9.96972L87.3641 8.95923C87.3473 8.86734 87.3037 8.78489 87.2405 8.72572C87.1773 8.66656 87.0984 8.63427 87.017 8.63427H85.8662C85.8617 8.61663 85.8543 8.60013 85.8445 8.58562L85.7167 8.40117C85.7046 8.38378 85.6893 8.36975 85.6719 8.36011C85.6545 8.35046 85.6355 8.34546 85.6162 8.34546H84.9056C84.8863 8.34546 84.8673 8.35046 84.8499 8.36011C84.8325 8.36975 84.8172 8.38378 84.8052 8.40117L84.6773 8.58562C84.6675 8.60013 84.6602 8.61663 84.6557 8.63427H83.5882C83.5069 8.63427 83.4279 8.66656 83.3648 8.72572C83.3016 8.78489 83.2579 8.86734 83.2412 8.95923L83.0568 9.96972C83.0459 10.0293 83.0467 10.091 83.0591 10.1502C83.0715 10.2094 83.0952 10.2646 83.1285 10.3119C83.1617 10.3592 83.2037 10.3973 83.2513 10.4235C83.299 10.4497 83.3511 10.4633 83.4039 10.4633H87.2014C87.2542 10.4633 87.3063 10.4497 87.3539 10.4235C87.4016 10.3973 87.4435 10.3592 87.4768 10.3119C87.51 10.2646 87.5337 10.2094 87.5461 10.1502C87.5585 10.091 87.5593 10.0293 87.5484 9.96972Z" fill="#1F1F1F"/>
<path d="M85.3518 19.5523C84.0032 19.5523 82.6848 19.0908 81.5634 18.2262C80.4421 17.3616 79.5681 16.1327 79.052 14.6949C78.5358 13.2571 78.4008 11.6749 78.6639 10.1486C78.927 8.62223 79.5765 7.22017 80.5301 6.11973C81.4838 5.01928 82.6988 4.26987 84.0215 3.96626C85.3443 3.66265 86.7153 3.81847 87.9613 4.41403C89.2073 5.00958 90.2723 6.01812 91.0215 7.31211C91.7708 8.60609 92.1707 10.1274 92.1707 11.6837C92.1687 13.7698 91.4496 15.7699 90.1713 17.245C88.8929 18.7202 87.1597 19.5499 85.3518 19.5523V19.5523ZM85.3518 4.29195C84.0849 4.29195 82.8464 4.72547 81.793 5.53768C80.7396 6.34989 79.9186 7.50432 79.4338 8.85498C78.9489 10.2056 78.8221 11.6919 79.0692 13.1257C79.3164 14.5596 79.9265 15.8767 80.8223 16.9104C81.7182 17.9442 82.8596 18.6482 84.1021 18.9334C85.3447 19.2186 86.6327 19.0722 87.8032 18.5127C88.9736 17.9533 89.9741 17.0059 90.6779 15.7903C91.3818 14.5747 91.7575 13.1456 91.7575 11.6837C91.7555 9.72395 91.08 7.84513 89.8792 6.4594C88.6783 5.07367 87.0501 4.29418 85.3518 4.29195V4.29195Z" fill="#1F1F1F"/>
<path d="M106.222 119.698H65.515L65.5605 114.241L65.5646 113.766L65.9283 71.0559H106.015L106.067 83.3944L106.069 83.8691L106.222 119.698Z" fill="#F23030"/>
<path d="M129.754 119.927L0.246054 120C0.180924 120 0.118525 119.97 0.0725385 119.917C0.0265517 119.863 0.000732422 119.791 0.000732422 119.716C0.000732422 119.641 0.0265517 119.569 0.0725385 119.516C0.118525 119.462 0.180924 119.432 0.246054 119.432L129.754 119.359C129.819 119.359 129.882 119.389 129.928 119.442C129.974 119.495 130 119.567 130 119.643C130 119.718 129.974 119.79 129.928 119.844C129.882 119.897 129.819 119.927 129.754 119.927V119.927Z" fill="#1F1F1F"/>
<path d="M63.5165 56.2473C63.4375 56.2473 63.3594 56.2662 63.287 56.3028C63.2147 56.3394 63.1497 56.3929 63.0961 56.46C63.0426 56.527 63.0017 56.6061 62.976 56.6923C62.9503 56.7786 62.9404 56.87 62.9469 56.9608C63.5306 60.1354 63.7874 63.1627 63.5896 65.9852C63.6021 66.1499 63.6675 66.3033 63.7728 66.4153C63.8782 66.5273 64.016 66.5898 64.1593 66.5907H67.8468C67.9901 66.5898 68.1279 66.5273 68.2333 66.4153C68.3386 66.3033 68.404 66.1499 68.4165 65.9852C68.1186 63.1382 68.4336 60.0984 69.0592 56.9608C69.0657 56.87 69.0558 56.7786 69.0301 56.6923C69.0044 56.6061 68.9635 56.527 68.91 56.46C68.8565 56.3929 68.7915 56.3394 68.7191 56.3028C68.6467 56.2662 68.5686 56.2473 68.4896 56.2473H63.5165Z" fill="#1F1F1F"/>
<path d="M69.3545 57.4503L69.0794 55.9423C69.0544 55.8052 68.9893 55.6821 68.8949 55.5938C68.8006 55.5055 68.6829 55.4573 68.5614 55.4573H66.844C66.8373 55.431 66.8264 55.4064 66.8118 55.3848L66.6209 55.1095C66.6029 55.0836 66.5801 55.0626 66.5542 55.0482C66.5282 55.0338 66.4998 55.0264 66.471 55.0264H65.4106C65.3818 55.0264 65.3534 55.0338 65.3274 55.0482C65.3015 55.0626 65.2787 55.0836 65.2607 55.1095L65.0699 55.3848C65.0553 55.4064 65.0443 55.431 65.0376 55.4573H63.4447C63.3232 55.4573 63.2055 55.5055 63.1112 55.5938C63.0169 55.6821 62.9517 55.8052 62.9267 55.9423L62.6516 57.4503C62.6354 57.5392 62.6366 57.6312 62.6551 57.7195C62.6736 57.8079 62.7089 57.8903 62.7585 57.9609C62.8082 58.0315 62.8708 58.0884 62.9419 58.1275C63.013 58.1666 63.0908 58.1868 63.1695 58.1868C65.0155 58.845 66.9906 58.845 68.8366 58.1868C68.9153 58.1868 68.9931 58.1666 69.0642 58.1275C69.1353 58.0884 69.198 58.0315 69.2476 57.9609C69.2972 57.8903 69.3325 57.8079 69.351 57.7195C69.3695 57.6312 69.3707 57.5392 69.3545 57.4503V57.4503Z" fill="#1F1F1F"/>
<path d="M85.0834 90.8467H66.1349V91.3236H85.0834V90.8467Z" fill="#1F1F1F"/>
<path d="M105.953 73.2019H87.0049V73.6788H105.953V73.2019Z" fill="#1F1F1F"/>
<path d="M95.415 106.107H76.4666V106.584H95.415V106.107Z" fill="#1F1F1F"/>
<path d="M106.069 83.9317H97.13V83.4548H106.067L106.069 83.9317Z" fill="#1F1F1F"/>
<path d="M68.0484 69.8636H59.1094V69.3867H68.0463L68.0484 69.8636Z" fill="#1F1F1F"/>
<path d="M75.0739 22.8905H66.1349V22.4136H75.0718L75.0739 22.8905Z" fill="#1F1F1F"/>
<path d="M105.036 13.1143H96.0969V12.6375H105.034L105.036 13.1143Z" fill="#1F1F1F"/>
<path d="M95.9439 22.8905H87.0049V22.4136H95.9419L95.9439 22.8905Z" fill="#1F1F1F"/>
<path d="M71.2388 113.976V114.452H65.5605L65.5646 113.976H71.2388Z" fill="#1F1F1F"/>
<path d="M105.517 47.9536C106.453 47.9536 107.212 47.0777 107.212 45.9973C107.212 44.9169 106.453 44.041 105.517 44.041C104.581 44.041 103.822 44.9169 103.822 45.9973C103.822 47.0777 104.581 47.9536 105.517 47.9536Z" fill="#F23030"/>
<path d="M81.11 43.3945L80.4008 42.0892C80.4008 42.0892 78.0934 41.4309 77.1435 43.1952C76.1935 44.9596 71.0819 63.9353 71.0819 63.9353L73.9748 65.1275L79.5539 50.4022L81.11 43.3945Z" fill="#F29F05"/>
</g>
<defs>
<clipPath id="clip0_47_891">
<rect width="130" height="120" fill="white"/>
</clipPath>
</defs>
</svg>
