<svg width="798" height="442" viewBox="0 0 798 442" fill="none" xmlns="http://www.w3.org/2000/svg">
<path d="M351.294 426.691H251.053C248.298 426.689 245.657 425.898 243.709 424.492C241.761 423.086 240.665 421.18 240.662 419.192V127.139C240.665 125.151 241.761 123.245 243.709 121.839C245.657 120.433 248.298 119.642 251.053 119.64H351.294C354.049 119.642 356.69 120.433 358.638 121.839C360.586 123.245 361.682 125.151 361.685 127.139V419.192C361.682 421.18 360.586 423.086 358.638 424.492C356.69 425.898 354.049 426.689 351.294 426.691V426.691Z" fill="black"/>
<path d="M315.333 426.691H215.092C212.337 426.689 209.696 425.898 207.748 424.492C205.8 423.086 204.704 421.18 204.701 419.192V127.139C204.704 125.151 205.8 123.245 207.748 121.839C209.696 120.433 212.337 119.642 215.092 119.64H315.333C318.088 119.642 320.729 120.433 322.677 121.839C324.625 123.245 325.721 125.151 325.724 127.139V419.192C325.721 421.18 324.625 423.086 322.677 424.492C320.729 425.898 318.088 426.689 315.333 426.691V426.691Z" fill="#1F1F1F"/>
<path d="M239.985 148.685H229.583C229.22 148.685 228.872 148.599 228.616 148.446C228.359 148.294 228.215 148.087 228.214 147.871V138.434C228.215 138.218 228.359 138.011 228.616 137.859C228.872 137.706 229.22 137.62 229.583 137.62H239.985C240.348 137.62 240.696 137.706 240.952 137.859C241.209 138.011 241.353 138.218 241.354 138.434V147.871C241.353 148.087 241.209 148.294 240.952 148.446C240.696 148.599 240.348 148.685 239.985 148.685V148.685Z" fill="#F2CB05"/>
<path d="M298.768 148.685H288.365C288.002 148.685 287.655 148.599 287.398 148.446C287.141 148.294 286.997 148.087 286.997 147.871V138.434C286.997 138.218 287.141 138.011 287.398 137.859C287.655 137.706 288.002 137.62 288.365 137.62H298.768C299.13 137.62 299.478 137.706 299.735 137.859C299.991 138.011 300.136 138.218 300.136 138.434V147.871C300.136 148.087 299.991 148.294 299.735 148.446C299.478 148.599 299.13 148.685 298.768 148.685V148.685Z" fill="#F2CB05"/>
<path d="M270.414 236.513H260.011C259.649 236.513 259.301 236.432 259.044 236.289C258.787 236.146 258.643 235.952 258.643 235.75V226.902C258.643 226.7 258.787 226.506 259.044 226.363C259.301 226.22 259.649 226.14 260.011 226.14H270.414C270.777 226.14 271.124 226.22 271.381 226.363C271.638 226.506 271.782 226.7 271.782 226.902V235.75C271.782 235.952 271.638 236.146 271.381 236.289C271.124 236.432 270.777 236.513 270.414 236.513V236.513Z" fill="#F2CB05"/>
<path d="M239.985 210.234H229.583C229.22 210.233 228.872 210.153 228.616 210.01C228.359 209.867 228.215 209.673 228.214 209.471V200.623C228.215 200.421 228.359 200.227 228.616 200.084C228.872 199.941 229.22 199.861 229.583 199.86H239.985C240.348 199.861 240.696 199.941 240.952 200.084C241.209 200.227 241.353 200.421 241.354 200.623V209.471C241.353 209.673 241.209 209.867 240.952 210.01C240.696 210.153 240.348 210.233 239.985 210.234V210.234Z" fill="#F2CB05"/>
<path d="M270.414 209.542H260.011C259.649 209.542 259.301 209.462 259.044 209.319C258.787 209.176 258.643 208.982 258.643 208.78V199.932C258.643 199.729 258.787 199.536 259.044 199.393C259.301 199.25 259.649 199.169 260.011 199.169H270.414C270.777 199.169 271.124 199.25 271.381 199.393C271.638 199.536 271.782 199.729 271.782 199.932V208.78C271.782 208.982 271.638 209.176 271.381 209.319C271.124 209.462 270.777 209.542 270.414 209.542V209.542Z" fill="#F2CB05"/>
<path d="M239.985 182.571H229.583C229.22 182.571 228.872 182.49 228.616 182.347C228.359 182.204 228.215 182.011 228.214 181.808V172.961C228.215 172.758 228.359 172.564 228.616 172.421C228.872 172.278 229.22 172.198 229.583 172.198H239.985C240.348 172.198 240.696 172.278 240.952 172.421C241.209 172.564 241.353 172.758 241.354 172.961V181.808C241.353 182.011 241.209 182.204 240.952 182.347C240.696 182.49 240.348 182.571 239.985 182.571V182.571Z" fill="#F2CB05"/>
<path d="M476.358 78.1462H435.116C433.982 78.1457 432.896 77.989 432.094 77.7103C431.293 77.4316 430.842 77.0538 430.841 76.6597V18.7755C430.842 18.3814 431.293 18.0036 432.094 17.7249C432.896 17.4463 433.982 17.2895 435.116 17.2891H476.358C477.491 17.2895 478.578 17.4463 479.379 17.7249C480.181 18.0036 480.632 18.3814 480.633 18.7755V76.6597C480.632 77.0538 480.181 77.4316 479.379 77.7103C478.578 77.989 477.491 78.1457 476.358 78.1462V78.1462Z" fill="black"/>
<path d="M488.684 426.691H426.248C424.532 426.689 422.887 425.779 421.674 424.16C420.46 422.542 419.778 420.348 419.776 418.06V81.9367C419.778 79.6483 420.46 77.4543 421.674 75.8362C422.887 74.218 424.532 73.3078 426.248 73.3052H488.684C490.399 73.3078 492.045 74.218 493.258 75.8362C494.471 77.4543 495.154 79.6483 495.156 81.9367V418.06C495.154 420.348 494.471 422.542 493.258 424.16C492.045 425.779 490.399 426.689 488.684 426.691V426.691Z" fill="black"/>
<path d="M22.3123 425.831C22.3149 423.924 23.6923 422.095 26.1418 420.746C28.5912 419.398 31.9123 418.64 35.375 418.64C38.8377 418.64 42.1588 419.398 44.6082 420.746C47.0577 422.095 48.4351 423.924 48.4377 425.831" fill="#1F1F1F"/>
<path d="M35.375 425.831C35.2814 425.831 35.1916 425.811 35.1254 425.774C35.0592 425.738 35.022 425.688 35.0219 425.637V421.844C35.0219 421.792 35.0591 421.743 35.1253 421.706C35.1916 421.67 35.2814 421.649 35.375 421.649C35.4686 421.649 35.5584 421.67 35.6246 421.706C35.6908 421.743 35.728 421.792 35.728 421.844V425.637C35.728 425.688 35.6908 425.738 35.6246 425.774C35.5584 425.811 35.4686 425.831 35.375 425.831V425.831Z" fill="#1D594E"/>
<path d="M35.3748 424.528C35.2905 424.528 35.2089 424.512 35.145 424.481L30.9085 422.478C30.8728 422.461 30.8435 422.441 30.8221 422.418C30.8008 422.395 30.7879 422.371 30.7841 422.345C30.7804 422.319 30.7859 422.294 30.8003 422.269C30.8147 422.245 30.8378 422.222 30.8682 422.203C30.8985 422.183 30.9356 422.167 30.9772 422.156C31.0189 422.144 31.0643 422.137 31.1108 422.135C31.1573 422.133 31.204 422.137 31.2482 422.145C31.2924 422.153 31.3333 422.166 31.3684 422.183L35.6049 424.186C35.6597 424.212 35.6987 424.246 35.7168 424.285C35.7349 424.323 35.7311 424.364 35.7061 424.401C35.681 424.439 35.6358 424.471 35.5766 424.493C35.5174 424.516 35.4469 424.528 35.3748 424.528L35.3748 424.528Z" fill="#1D594E"/>
<path d="M75.6224 425.831C75.5287 425.831 75.4389 425.811 75.3727 425.774C75.3065 425.738 75.2693 425.688 75.2693 425.637V421.844C75.2693 421.792 75.3065 421.743 75.3727 421.706C75.4389 421.67 75.5287 421.649 75.6224 421.649C75.716 421.649 75.8058 421.67 75.872 421.706C75.9382 421.743 75.9754 421.792 75.9754 421.844V425.637C75.9754 425.688 75.9382 425.738 75.872 425.774C75.8058 425.811 75.716 425.831 75.6224 425.831V425.831Z" fill="#1D594E"/>
<path d="M75.6222 424.528C75.5378 424.528 75.4563 424.511 75.3924 424.481L71.1558 422.478C71.1201 422.461 71.0907 422.441 71.0693 422.418C71.048 422.395 71.035 422.37 71.0312 422.344C71.0275 422.319 71.033 422.293 71.0474 422.269C71.0618 422.244 71.0849 422.222 71.1153 422.202C71.1457 422.183 71.1828 422.167 71.2244 422.155C71.2661 422.143 71.3115 422.137 71.3581 422.135C71.4046 422.133 71.4513 422.136 71.4956 422.144C71.5398 422.153 71.5806 422.166 71.6157 422.182L75.8523 424.186C75.907 424.212 75.9461 424.246 75.9642 424.285C75.9822 424.323 75.9785 424.364 75.9534 424.401C75.9283 424.438 75.8832 424.47 75.8239 424.493C75.7647 424.516 75.6943 424.528 75.6221 424.528L75.6222 424.528Z" fill="#1D594E"/>
<path d="M82.7926 441.275C95.4012 441.275 105.622 439.961 105.622 438.34C105.622 436.719 95.4012 435.405 82.7926 435.405C70.184 435.405 59.9628 436.719 59.9628 438.34C59.9628 439.961 70.184 441.275 82.7926 441.275Z" fill="#1F1F1F"/>
<path d="M164.98 396.581C164.98 389.177 154.077 371.606 140.628 371.606C127.179 371.606 116.276 389.177 116.276 396.581C116.276 400.139 118.842 403.552 123.409 406.068C127.976 408.584 134.17 409.997 140.628 409.997C147.087 409.997 153.281 408.584 157.848 406.068C162.414 403.552 164.98 400.139 164.98 396.581H164.98Z" fill="#1F1F1F"/>
<path d="M158.892 396.581C158.892 389.177 147.989 371.606 134.54 371.606C121.091 371.606 110.188 389.177 110.188 396.581C110.188 400.139 112.754 403.552 117.321 406.068C121.888 408.584 128.082 409.997 134.54 409.997C140.999 409.997 147.193 408.584 151.76 406.068C156.327 403.552 158.892 400.139 158.892 396.581H158.892Z" fill="#F2CB05"/>
<path d="M135.301 426.579C135.099 426.579 134.906 426.535 134.763 426.456C134.62 426.378 134.54 426.271 134.54 426.16V388.787C134.54 388.676 134.62 388.569 134.763 388.49C134.906 388.412 135.099 388.368 135.301 388.368C135.503 388.368 135.697 388.412 135.839 388.49C135.982 388.569 136.062 388.676 136.062 388.787V426.16C136.062 426.271 135.982 426.378 135.839 426.456C135.697 426.535 135.503 426.579 135.301 426.579Z" fill="#1F1F1F"/>
<path d="M135.301 394.914C135.151 394.914 135.004 394.889 134.879 394.843C134.753 394.797 134.656 394.732 134.598 394.655C134.541 394.578 134.526 394.494 134.555 394.413C134.584 394.332 134.657 394.257 134.763 394.198L144.715 388.715C144.858 388.636 145.051 388.592 145.253 388.592C145.455 388.592 145.649 388.636 145.791 388.715C145.934 388.794 146.014 388.9 146.014 389.012C146.014 389.123 145.934 389.229 145.791 389.308L135.839 394.791C135.769 394.83 135.685 394.861 135.593 394.882C135.5 394.903 135.401 394.914 135.301 394.914V394.914Z" fill="#1F1F1F"/>
<path d="M415.347 426.579C415.145 426.579 414.952 426.535 414.809 426.456C414.666 426.378 414.586 426.271 414.586 426.16V388.787C414.586 388.676 414.666 388.569 414.809 388.49C414.952 388.412 415.145 388.368 415.347 388.368C415.549 388.368 415.743 388.412 415.885 388.49C416.028 388.569 416.108 388.676 416.108 388.787V426.16C416.108 426.271 416.028 426.378 415.885 426.456C415.743 426.535 415.549 426.579 415.347 426.579Z" fill="#1F1F1F"/>
<path d="M215.967 281.747H203.791C202.883 281.746 202.012 281.547 201.37 281.194C200.728 280.84 200.367 280.36 200.366 279.86V264.348C200.367 263.847 200.728 263.368 201.37 263.014C202.012 262.66 202.883 262.461 203.791 262.461H215.967C216.875 262.461 217.745 262.66 218.387 263.014C219.029 263.368 219.39 263.847 219.391 264.348V279.86C219.39 280.36 219.029 280.84 218.387 281.194C217.745 281.547 216.875 281.746 215.967 281.747V281.747Z" fill="#F28705"/>
<path d="M263.909 426.391H201.508C199.793 426.39 198.149 426.014 196.936 425.346C195.723 424.678 195.041 423.772 195.039 422.827V284.053C195.041 283.108 195.723 282.202 196.936 281.534C198.149 280.866 199.793 280.49 201.508 280.489H263.909C265.624 280.49 267.268 280.866 268.481 281.534C269.694 282.202 270.376 283.108 270.378 284.053V422.827C270.376 423.772 269.694 424.678 268.481 425.346C267.268 426.014 265.624 426.39 263.909 426.391V426.391Z" fill="#F28705"/>
<path d="M369.044 426H306.608C304.892 425.998 303.247 425.315 302.034 424.103C300.821 422.89 300.138 421.245 300.136 419.53V167.602C300.138 165.887 300.821 164.243 302.034 163.03C303.247 161.817 304.892 161.135 306.608 161.133H369.044C370.76 161.135 372.405 161.817 373.618 163.03C374.832 164.243 375.514 165.887 375.516 167.602V419.53C375.514 421.245 374.832 422.89 373.618 424.103C372.405 425.315 370.76 425.998 369.044 426V426Z" fill="#F28705"/>
<path d="M435.434 426.691H372.998C371.282 426.69 369.637 426.227 368.424 425.404C367.21 424.58 366.528 423.464 366.526 422.3V251.278C366.528 250.114 367.21 248.997 368.424 248.174C369.637 247.351 371.282 246.888 372.998 246.886H435.434C437.15 246.888 438.795 247.351 440.008 248.174C441.221 248.997 441.904 250.114 441.906 251.278V422.3C441.904 423.464 441.221 424.58 440.008 425.404C438.795 426.227 437.15 426.69 435.434 426.691V426.691Z" fill="#F28705"/>
<path d="M226.621 426.391H164.219C162.504 426.39 160.86 426.014 159.647 425.346C158.435 424.678 157.753 423.772 157.751 422.827V284.053C157.753 283.108 158.435 282.202 159.647 281.534C160.86 280.866 162.504 280.49 164.219 280.489H226.621C228.336 280.49 229.98 280.866 231.192 281.534C232.405 282.202 233.087 283.108 233.089 284.053V422.827C233.087 423.772 232.405 424.678 231.192 425.346C229.98 426.014 228.336 426.39 226.621 426.391V426.391Z" fill="#F29F05"/>
<path d="M226.621 426.391H164.219C162.504 426.39 160.86 426.014 159.647 425.346C158.435 424.678 157.753 423.772 157.751 422.827V284.053C157.753 283.108 158.435 282.202 159.647 281.534C160.86 280.866 162.504 280.49 164.219 280.489H226.621C228.336 280.49 229.98 280.866 231.192 281.534C232.405 282.202 233.087 283.108 233.089 284.053V422.827C233.087 423.772 232.405 424.678 231.192 425.346C229.98 426.014 228.336 426.39 226.621 426.391V426.391Z" fill="#F29F05"/>
<path d="M204.552 281.747H192.376C191.468 281.746 190.597 281.547 189.955 281.194C189.313 280.84 188.952 280.36 188.951 279.86V264.348C188.952 263.847 189.313 263.368 189.955 263.014C190.597 262.66 191.468 262.461 192.376 262.461H204.552C205.46 262.461 206.33 262.66 206.972 263.014C207.614 263.368 207.975 263.847 207.976 264.348V279.86C207.975 280.36 207.614 280.84 206.972 281.194C206.33 281.547 205.46 281.746 204.552 281.747V281.747Z" fill="#F29F05"/>
<path d="M188.571 311.933H174.112C173.608 311.933 173.124 311.823 172.767 311.626C172.411 311.43 172.21 311.163 172.209 310.885V298.727C172.21 298.449 172.411 298.183 172.767 297.986C173.124 297.79 173.608 297.679 174.112 297.679H188.571C189.075 297.679 189.559 297.79 189.915 297.986C190.272 298.183 190.473 298.449 190.473 298.727V310.885C190.473 311.163 190.272 311.43 189.915 311.626C189.559 311.823 189.075 311.933 188.571 311.933V311.933Z" fill="#F2CB05"/>
<path d="M216.728 311.933H202.269C201.764 311.933 201.281 311.823 200.924 311.626C200.567 311.43 200.367 311.163 200.366 310.885V298.727C200.367 298.449 200.567 298.183 200.924 297.986C201.281 297.79 201.764 297.679 202.269 297.679H216.728C217.232 297.679 217.716 297.79 218.072 297.986C218.429 298.183 218.63 298.449 218.63 298.727V310.885C218.63 311.163 218.429 311.43 218.072 311.626C217.716 311.823 217.232 311.933 216.728 311.933V311.933Z" fill="#F2CB05"/>
<path d="M188.571 334.154H174.112C173.608 334.154 173.124 334.043 172.767 333.847C172.411 333.65 172.21 333.384 172.209 333.106V320.948C172.21 320.67 172.411 320.403 172.767 320.207C173.124 320.01 173.608 319.9 174.112 319.899H188.571C189.075 319.9 189.559 320.01 189.915 320.207C190.272 320.403 190.473 320.67 190.473 320.948V333.106C190.473 333.384 190.272 333.65 189.915 333.847C189.559 334.043 189.075 334.154 188.571 334.154V334.154Z" fill="#F2CB05"/>
<path d="M216.728 334.154H202.269C201.764 334.154 201.281 334.043 200.924 333.847C200.567 333.65 200.367 333.384 200.366 333.106V320.948C200.367 320.67 200.567 320.403 200.924 320.207C201.281 320.01 201.764 319.9 202.269 319.899H216.728C217.232 319.9 217.716 320.01 218.072 320.207C218.429 320.403 218.63 320.67 218.63 320.948V333.106C218.63 333.384 218.429 333.65 218.072 333.847C217.716 334.043 217.232 334.154 216.728 334.154V334.154Z" fill="#F2CB05"/>
<path d="M188.571 356.375H174.112C173.608 356.375 173.124 356.264 172.767 356.068C172.411 355.871 172.21 355.605 172.209 355.327V343.168C172.21 342.89 172.411 342.624 172.767 342.427C173.124 342.231 173.608 342.12 174.112 342.12H188.571C189.075 342.12 189.559 342.231 189.915 342.427C190.272 342.624 190.473 342.89 190.473 343.168V355.327C190.473 355.605 190.272 355.871 189.915 356.068C189.559 356.264 189.075 356.375 188.571 356.375V356.375Z" fill="#F2CB05"/>
<path d="M216.728 356.375H202.269C201.764 356.375 201.281 356.264 200.924 356.068C200.567 355.871 200.367 355.605 200.366 355.327V343.168C200.367 342.89 200.567 342.624 200.924 342.427C201.281 342.231 201.764 342.12 202.269 342.12H216.728C217.232 342.12 217.716 342.231 218.072 342.427C218.429 342.624 218.63 342.89 218.63 343.168V355.327C218.63 355.605 218.429 355.871 218.072 356.068C217.716 356.264 217.232 356.375 216.728 356.375V356.375Z" fill="#F2CB05"/>
<path d="M188.571 378.596H174.112C173.608 378.595 173.124 378.485 172.767 378.288C172.411 378.092 172.21 377.825 172.209 377.547V365.389C172.21 365.111 172.411 364.845 172.767 364.648C173.124 364.452 173.608 364.341 174.112 364.341H188.571C189.075 364.341 189.559 364.452 189.915 364.648C190.272 364.845 190.473 365.111 190.473 365.389V377.547C190.473 377.825 190.272 378.092 189.915 378.288C189.559 378.485 189.075 378.595 188.571 378.596V378.596Z" fill="#F2CB05"/>
<path d="M216.728 378.596H202.269C201.764 378.595 201.281 378.485 200.924 378.288C200.567 378.092 200.367 377.825 200.366 377.547V365.389C200.367 365.111 200.567 364.845 200.924 364.648C201.281 364.452 201.764 364.341 202.269 364.341H216.728C217.232 364.341 217.716 364.452 218.072 364.648C218.429 364.845 218.63 365.111 218.63 365.389V377.547C218.63 377.825 218.429 378.092 218.072 378.288C217.716 378.485 217.232 378.595 216.728 378.596V378.596Z" fill="#F2CB05"/>
<path d="M350.372 426.691H287.936C286.22 426.689 284.575 426.005 283.362 424.789C282.149 423.573 281.466 421.924 281.464 420.205V167.619C281.466 165.899 282.149 164.251 283.362 163.035C284.575 161.819 286.22 161.135 287.936 161.133H350.372C352.088 161.135 353.733 161.819 354.946 163.035C356.16 164.251 356.842 165.899 356.844 167.619V420.205C356.842 421.924 356.16 423.573 354.946 424.789C353.733 426.005 352.088 426.689 350.372 426.691V426.691Z" fill="#F29F05"/>
<path d="M466.554 426.691H404.118C402.402 426.689 400.757 425.779 399.544 424.16C398.33 422.542 397.648 420.348 397.646 418.06V81.9367C397.648 79.6483 398.33 77.4543 399.544 75.8362C400.757 74.218 402.402 73.3078 404.118 73.3052H466.554C468.27 73.3078 469.915 74.218 471.128 75.8362C472.341 77.4543 473.024 79.6483 473.026 81.9367V418.06C473.024 420.348 472.341 422.542 471.128 424.16C469.915 425.779 468.27 426.689 466.554 426.691V426.691Z" fill="#1F1F1F"/>
<path d="M457.686 78.1462H416.444C415.31 78.1457 414.224 77.989 413.422 77.7103C412.621 77.4316 412.17 77.0538 412.169 76.6597V18.7755C412.17 18.3814 412.621 18.0036 413.422 17.7249C414.224 17.4463 415.31 17.2895 416.444 17.2891H457.686C458.819 17.2895 459.906 17.4463 460.707 17.7249C461.509 18.0036 461.96 18.3814 461.961 18.7755V76.6597C461.96 77.0538 461.509 77.4316 460.707 77.7103C459.906 77.989 458.819 78.1457 457.686 78.1462V78.1462Z" fill="#1F1F1F"/>
<path d="M441.371 38.7273H436.216C436.074 38.727 435.938 38.6272 435.838 38.4499C435.738 38.2726 435.682 38.0321 435.682 37.7813V0.945924C435.682 0.695136 435.738 0.454701 435.838 0.277367C435.938 0.100033 436.074 0.000282176 436.216 0H441.371C441.513 0.000282176 441.649 0.100033 441.749 0.277367C441.849 0.454701 441.905 0.695136 441.906 0.945924V37.7813C441.905 38.0321 441.849 38.2726 441.749 38.4499C441.649 38.6272 441.513 38.727 441.371 38.7273V38.7273Z" fill="#1F1F1F"/>
<path d="M425.752 426.691H363.316C361.6 426.69 359.955 426.227 358.742 425.404C357.528 424.58 356.846 423.464 356.844 422.3V251.278C356.846 250.114 357.528 248.997 358.742 248.174C359.955 247.351 361.6 246.888 363.316 246.886H425.752C427.468 246.888 429.113 247.351 430.326 248.174C431.539 248.997 432.222 250.114 432.224 251.278V422.3C432.222 423.464 431.539 424.58 430.326 425.404C429.113 426.227 427.468 426.69 425.752 426.691V426.691Z" fill="#F29F05"/>
<path d="M340.448 209.542H326.214C325.717 209.541 325.241 209.332 324.89 208.961C324.539 208.589 324.341 208.085 324.341 207.559V184.554C324.341 184.029 324.539 183.525 324.89 183.153C325.241 182.781 325.717 182.572 326.214 182.571H340.448C340.945 182.572 341.421 182.781 341.772 183.153C342.123 183.525 342.321 184.029 342.321 184.554V207.559C342.321 208.085 342.123 208.589 341.772 208.961C341.421 209.332 340.945 209.541 340.448 209.542V209.542Z" fill="#F2CB05"/>
<path d="M419.603 107.192H413.033C412.804 107.191 412.584 107.095 412.422 106.923C412.26 106.752 412.169 106.519 412.169 106.276V95.6589C412.169 95.4163 412.26 95.1836 412.422 95.012C412.584 94.8404 412.804 94.7439 413.033 94.7437H419.603C419.832 94.7439 420.052 94.8404 420.214 95.012C420.376 95.1836 420.467 95.4163 420.467 95.6589V106.276C420.467 106.519 420.376 106.752 420.214 106.923C420.052 107.095 419.832 107.191 419.603 107.192V107.192Z" fill="#F2CB05"/>
<path d="M456.255 320.191H449.686C449.456 320.191 449.237 320.094 449.075 319.923C448.913 319.751 448.821 319.519 448.821 319.276V308.658C448.821 308.416 448.913 308.183 449.075 308.012C449.237 307.84 449.456 307.743 449.686 307.743H456.255C456.485 307.743 456.704 307.84 456.866 308.012C457.028 308.183 457.12 308.416 457.12 308.658V319.276C457.12 319.519 457.028 319.751 456.866 319.923C456.704 320.094 456.485 320.191 456.255 320.191V320.191Z" fill="#F2CB05"/>
<path d="M456.255 222.682H449.686C449.456 222.682 449.237 222.585 449.075 222.414C448.913 222.242 448.821 222.009 448.821 221.767V211.149C448.821 210.907 448.913 210.674 449.075 210.502C449.237 210.331 449.456 210.234 449.686 210.234H456.255C456.485 210.234 456.704 210.331 456.866 210.502C457.028 210.674 457.12 210.907 457.12 211.149V221.767C457.12 222.009 457.028 222.242 456.866 222.414C456.704 222.585 456.485 222.682 456.255 222.682V222.682Z" fill="#F2CB05"/>
<path d="M597.258 410.786H534.822C533.106 410.784 531.461 410.286 530.248 409.399C529.035 408.512 528.352 407.31 528.35 406.056V221.879C528.352 220.625 529.035 219.423 530.248 218.536C531.461 217.65 533.106 217.151 534.822 217.149H597.258C598.974 217.151 600.619 217.65 601.832 218.536C603.046 219.423 603.728 220.625 603.73 221.879V406.056C603.728 407.31 603.046 408.512 601.832 409.399C600.619 410.286 598.974 410.784 597.258 410.786V410.786Z" fill="black"/>
<path d="M575.128 410.786H512.693C510.977 410.784 509.332 410.286 508.118 409.399C506.905 408.512 506.222 407.31 506.221 406.056V221.879C506.222 220.625 506.905 219.423 508.118 218.536C509.332 217.65 510.977 217.151 512.693 217.149H575.128C576.844 217.151 578.489 217.65 579.703 218.536C580.916 219.423 581.598 220.625 581.6 221.879V406.056C581.598 407.31 580.916 408.512 579.703 409.399C578.489 410.286 576.844 410.784 575.128 410.786V410.786Z" fill="#1F1F1F"/>
<path d="M568.288 298.753H561.718C561.489 298.753 561.269 298.699 561.107 298.604C560.945 298.509 560.854 298.379 560.854 298.244V292.346C560.854 292.211 560.945 292.082 561.107 291.987C561.269 291.891 561.489 291.838 561.718 291.837H568.288C568.517 291.838 568.737 291.891 568.899 291.987C569.061 292.082 569.152 292.211 569.152 292.346V298.244C569.152 298.379 569.061 298.509 568.899 298.604C568.737 298.699 568.517 298.753 568.288 298.753V298.753Z" fill="#F2CB05"/>
<path d="M549.616 334.023H543.046C542.817 334.022 542.597 333.969 542.435 333.873C542.273 333.778 542.182 333.649 542.182 333.514V327.615C542.182 327.481 542.273 327.351 542.435 327.256C542.597 327.161 542.817 327.107 543.046 327.107H549.616C549.845 327.107 550.065 327.161 550.227 327.256C550.389 327.351 550.48 327.481 550.48 327.615V333.514C550.48 333.649 550.389 333.778 550.227 333.873C550.065 333.969 549.845 334.022 549.616 334.023V334.023Z" fill="#F2CB05"/>
<path d="M533.018 253.802H526.449C526.219 253.802 526 253.748 525.838 253.653C525.676 253.557 525.584 253.428 525.584 253.293V247.395C525.584 247.26 525.676 247.131 525.838 247.035C526 246.94 526.219 246.886 526.449 246.886H533.018C533.248 246.886 533.467 246.94 533.629 247.035C533.791 247.131 533.883 247.26 533.883 247.395V253.293C533.883 253.428 533.791 253.557 533.629 253.653C533.467 253.748 533.248 253.802 533.018 253.802V253.802Z" fill="#F2CB05"/>
<path d="M533.018 298.753H526.449C526.219 298.753 526 298.699 525.838 298.604C525.676 298.509 525.584 298.379 525.584 298.244V292.346C525.584 292.211 525.676 292.082 525.838 291.987C526 291.891 526.219 291.838 526.449 291.837H533.018C533.248 291.838 533.467 291.891 533.629 291.987C533.791 292.082 533.883 292.211 533.883 292.346V298.244C533.883 298.379 533.791 298.509 533.629 298.604C533.467 298.699 533.248 298.753 533.018 298.753V298.753Z" fill="#F2CB05"/>
<path d="M456.255 107.192H449.686C449.456 107.191 449.237 107.095 449.075 106.923C448.913 106.752 448.821 106.519 448.821 106.276V95.6589C448.821 95.4163 448.913 95.1836 449.075 95.012C449.237 94.8404 449.456 94.7439 449.686 94.7437H456.255C456.485 94.7439 456.704 94.8404 456.866 95.012C457.028 95.1836 457.12 95.4163 457.12 95.6589V106.276C457.12 106.519 457.028 106.752 456.866 106.923C456.704 107.095 456.485 107.191 456.255 107.192V107.192Z" fill="#F2CB05"/>
<path d="M438.275 145.919H431.705C431.476 145.918 431.256 145.822 431.094 145.65C430.932 145.479 430.841 145.246 430.841 145.003V134.386C430.841 134.143 430.932 133.911 431.094 133.739C431.256 133.567 431.476 133.471 431.705 133.471H438.275C438.504 133.471 438.724 133.567 438.886 133.739C439.048 133.911 439.139 134.143 439.139 134.386V145.003C439.139 145.246 439.048 145.479 438.886 145.65C438.724 145.822 438.504 145.918 438.275 145.919V145.919Z" fill="#F2CB05"/>
<path d="M419.603 177.73H413.033C412.804 177.73 412.584 177.633 412.422 177.462C412.26 177.29 412.169 177.058 412.169 176.815V166.198C412.169 165.955 412.26 165.722 412.422 165.551C412.584 165.379 412.804 165.283 413.033 165.282H419.603C419.832 165.283 420.052 165.379 420.214 165.551C420.376 165.722 420.467 165.955 420.467 166.198V176.815C420.467 177.058 420.376 177.29 420.214 177.462C420.052 177.633 419.832 177.73 419.603 177.73V177.73Z" fill="#F2CB05"/>
<path d="M312.094 293.912H297.86C297.363 293.912 296.887 293.702 296.536 293.331C296.185 292.959 295.987 292.455 295.987 291.929V268.925C295.987 268.399 296.185 267.895 296.536 267.523C296.887 267.151 297.363 266.942 297.86 266.941H312.094C312.591 266.942 313.067 267.151 313.418 267.523C313.769 267.895 313.967 268.399 313.967 268.925V291.929C313.967 292.455 313.769 292.959 313.418 293.331C313.067 293.702 312.591 293.912 312.094 293.912V293.912Z" fill="#F2CB05"/>
<path d="M340.448 336.097H326.214C325.717 336.097 325.241 335.888 324.89 335.516C324.539 335.144 324.341 334.64 324.341 334.114V311.11C324.341 310.584 324.539 310.08 324.89 309.708C325.241 309.336 325.717 309.127 326.214 309.126H340.448C340.945 309.127 341.421 309.336 341.772 309.708C342.123 310.08 342.321 310.584 342.321 311.11V334.114C342.321 334.64 342.123 335.144 341.772 335.516C341.421 335.888 340.945 336.097 340.448 336.097V336.097Z" fill="#F2CB05"/>
<path d="M405.455 298.753H391.22C390.724 298.752 390.248 298.543 389.896 298.171C389.545 297.8 389.348 297.296 389.347 296.77V273.765C389.348 273.24 389.545 272.736 389.896 272.364C390.248 271.992 390.724 271.783 391.22 271.782H405.455C405.951 271.783 406.427 271.992 406.779 272.364C407.13 272.736 407.327 273.24 407.328 273.765V296.77C407.327 297.296 407.13 297.8 406.779 298.171C406.427 298.543 405.951 298.752 405.455 298.753V298.753Z" fill="#F2CB05"/>
<path d="M402.689 394.879H388.454C387.957 394.879 387.481 394.67 387.13 394.298C386.779 393.926 386.582 393.422 386.581 392.896V369.892C386.582 369.366 386.779 368.862 387.13 368.49C387.481 368.118 387.957 367.909 388.454 367.909H402.689C403.185 367.909 403.661 368.118 404.012 368.49C404.363 368.862 404.561 369.366 404.561 369.892V392.896C404.561 393.422 404.363 393.926 404.012 394.298C403.661 394.67 403.185 394.879 402.689 394.879V394.879Z" fill="#F2CB05"/>
<path d="M423.435 349.237H409.201C408.704 349.236 408.228 349.027 407.877 348.655C407.526 348.284 407.328 347.78 407.328 347.254V324.249C407.328 323.723 407.526 323.219 407.877 322.848C408.228 322.476 408.704 322.267 409.201 322.266H423.435C423.932 322.267 424.408 322.476 424.759 322.848C425.11 323.219 425.308 323.723 425.308 324.249V347.254C425.308 347.78 425.11 348.284 424.759 348.655C424.408 349.027 423.932 349.236 423.435 349.237V349.237Z" fill="#F2CB05"/>
<path d="M188.571 400.816H174.112C173.608 400.816 173.124 400.705 172.767 400.509C172.411 400.312 172.21 400.046 172.209 399.768V387.61C172.21 387.332 172.411 387.065 172.767 386.869C173.124 386.672 173.608 386.562 174.112 386.562H188.571C189.075 386.562 189.559 386.672 189.915 386.869C190.272 387.065 190.473 387.332 190.473 387.61V399.768C190.473 400.046 190.272 400.312 189.915 400.509C189.559 400.705 189.075 400.816 188.571 400.816V400.816Z" fill="#F2CB05"/>
<path d="M216.728 400.816H202.269C201.764 400.816 201.281 400.705 200.924 400.509C200.567 400.312 200.367 400.046 200.366 399.768V387.61C200.367 387.332 200.567 387.065 200.924 386.869C201.281 386.672 201.764 386.562 202.269 386.562H216.728C217.232 386.562 217.716 386.672 218.072 386.869C218.429 387.065 218.63 387.332 218.63 387.61V399.768C218.63 400.046 218.429 400.312 218.072 400.509C217.716 400.705 217.232 400.816 216.728 400.816V400.816Z" fill="#F2CB05"/>
<path d="M530.257 355.117H518.081C517.174 355.117 516.303 354.918 515.661 354.564C515.019 354.21 514.658 353.731 514.657 353.231V344.426C514.658 343.926 515.019 343.446 515.661 343.093C516.303 342.739 517.174 342.54 518.081 342.54H530.257C531.165 342.54 532.036 342.739 532.678 343.093C533.32 343.446 533.681 343.926 533.682 344.426V353.231C533.681 353.731 533.32 354.21 532.678 354.564C532.036 354.918 531.165 355.117 530.257 355.117Z" fill="#F28705"/>
<path d="M632.992 426.81H570.59C568.875 426.809 567.231 426.433 566.018 425.765C564.806 425.097 564.124 424.191 564.122 423.247V356.585C564.124 355.64 564.806 354.734 566.018 354.066C567.231 353.398 568.875 353.022 570.59 353.021H632.992C634.707 353.022 636.351 353.398 637.563 354.066C638.776 354.734 639.458 355.64 639.46 356.585V423.247C639.458 424.191 638.776 425.097 637.563 425.765C636.351 426.433 634.707 426.809 632.992 426.81V426.81Z" fill="#F28705"/>
<path d="M595.703 426.81H487.642C485.927 426.809 484.283 426.433 483.07 425.765C481.857 425.097 481.175 424.191 481.173 423.247V356.585C481.175 355.64 481.857 354.734 483.07 354.066C484.283 353.398 485.927 353.022 487.642 353.021H595.703C597.418 353.022 599.062 353.398 600.275 354.066C601.487 354.734 602.169 355.64 602.171 356.585V423.247C602.169 424.191 601.487 425.097 600.275 425.765C599.062 426.433 597.418 426.809 595.703 426.81V426.81Z" fill="#F29F05"/>
<path d="M518.842 355.117H506.667C505.759 355.117 504.888 354.918 504.246 354.564C503.604 354.21 503.243 353.731 503.242 353.231V344.426C503.243 343.926 503.604 343.446 504.246 343.093C504.888 342.739 505.759 342.54 506.667 342.54H518.842C519.75 342.54 520.621 342.739 521.263 343.093C521.905 343.446 522.266 343.926 522.267 344.426V353.231C522.266 353.731 521.905 354.21 521.263 354.564C520.621 354.918 519.75 355.117 518.842 355.117V355.117Z" fill="#F29F05"/>
<path d="M534.823 385.932H520.364C519.86 385.932 519.377 385.822 519.02 385.625C518.663 385.429 518.463 385.162 518.462 384.884V372.726C518.463 372.448 518.663 372.182 519.02 371.985C519.377 371.789 519.86 371.678 520.364 371.678H534.823C535.328 371.678 535.811 371.789 536.168 371.985C536.525 372.182 536.725 372.448 536.726 372.726V384.884C536.725 385.162 536.525 385.429 536.168 385.625C535.811 385.822 535.328 385.932 534.823 385.932V385.932Z" fill="#F2CB05"/>
<path d="M562.98 385.932H548.521C548.017 385.932 547.533 385.822 547.177 385.625C546.82 385.429 546.619 385.162 546.619 384.884V372.726C546.619 372.448 546.82 372.182 547.177 371.985C547.533 371.789 548.017 371.678 548.521 371.678H562.98C563.485 371.678 563.968 371.789 564.325 371.985C564.681 372.182 564.882 372.448 564.883 372.726V384.884C564.882 385.162 564.681 385.429 564.325 385.625C563.968 385.822 563.485 385.932 562.98 385.932V385.932Z" fill="#F2CB05"/>
<path d="M534.823 408.153H520.364C519.86 408.153 519.377 408.042 519.02 407.846C518.663 407.649 518.463 407.383 518.462 407.105V394.947C518.463 394.669 518.663 394.402 519.02 394.206C519.377 394.009 519.86 393.899 520.364 393.898H534.823C535.328 393.899 535.811 394.009 536.168 394.206C536.525 394.402 536.725 394.669 536.726 394.947V407.105C536.725 407.383 536.525 407.649 536.168 407.846C535.811 408.042 535.328 408.153 534.823 408.153V408.153Z" fill="#F2CB05"/>
<path d="M562.98 408.153H548.521C548.017 408.153 547.533 408.042 547.177 407.846C546.82 407.649 546.619 407.383 546.619 407.105V394.947C546.619 394.669 546.82 394.402 547.177 394.206C547.533 394.009 548.017 393.899 548.521 393.898H562.98C563.485 393.899 563.968 394.009 564.325 394.206C564.681 394.402 564.882 394.669 564.883 394.947V407.105C564.882 407.383 564.681 407.649 564.325 407.846C563.968 408.042 563.485 408.153 562.98 408.153Z" fill="#F2CB05"/>
<path d="M796.605 427.02H0.760995C0.559166 427.02 0.365604 426.976 0.22289 426.897C0.0801754 426.819 0 426.712 0 426.601C0 426.49 0.0801754 426.383 0.22289 426.304C0.365604 426.226 0.559166 426.182 0.760995 426.182H796.605C796.807 426.182 797.001 426.226 797.144 426.304C797.286 426.383 797.366 426.49 797.366 426.601C797.366 426.712 797.286 426.819 797.144 426.897C797.001 426.976 796.807 427.02 796.605 427.02Z" fill="#1F1F1F"/>
<path d="M276.085 441.694H205.313C205.111 441.694 204.917 441.65 204.775 441.571C204.632 441.493 204.552 441.386 204.552 441.275C204.552 441.164 204.632 441.057 204.775 440.978C204.917 440.9 205.111 440.855 205.313 440.855H276.085C276.287 440.855 276.481 440.9 276.623 440.978C276.766 441.057 276.846 441.164 276.846 441.275C276.846 441.386 276.766 441.493 276.623 441.571C276.481 441.65 276.287 441.694 276.085 441.694Z" fill="#1F1F1F"/>
<path d="M451.875 441.694H381.102C380.901 441.694 380.707 441.65 380.564 441.571C380.422 441.493 380.341 441.386 380.341 441.275C380.341 441.164 380.422 441.057 380.564 440.978C380.707 440.9 380.901 440.855 381.102 440.855H451.875C452.077 440.855 452.27 440.9 452.413 440.978C452.556 441.057 452.636 441.164 452.636 441.275C452.636 441.386 452.556 441.493 452.413 441.571C452.27 441.65 452.077 441.694 451.875 441.694Z" fill="#1F1F1F"/>
<path d="M627.665 441.694H556.892C556.69 441.694 556.497 441.65 556.354 441.571C556.211 441.493 556.131 441.386 556.131 441.275C556.131 441.164 556.211 441.057 556.354 440.978C556.497 440.9 556.69 440.855 556.892 440.855H627.665C627.867 440.855 628.06 440.9 628.203 440.978C628.345 441.057 628.426 441.164 628.426 441.275C628.426 441.386 628.345 441.493 628.203 441.571C628.06 441.65 627.867 441.694 627.665 441.694Z" fill="#1F1F1F"/>
<path d="M316.418 396.581C316.418 389.177 305.515 371.606 292.066 371.606C278.617 371.606 267.714 389.177 267.714 396.581C267.714 400.139 270.28 403.552 274.847 406.068C279.414 408.584 285.608 409.997 292.066 409.997C298.525 409.997 304.719 408.584 309.286 406.068C313.852 403.552 316.418 400.139 316.418 396.581H316.418Z" fill="#1F1F1F"/>
<path d="M310.33 396.581C310.33 389.177 299.427 371.606 285.978 371.606C272.529 371.606 261.626 389.177 261.626 396.581C261.626 400.139 264.192 403.552 268.759 406.068C273.326 408.584 279.52 409.997 285.978 409.997C292.437 409.997 298.631 408.584 303.198 406.068C307.764 403.552 310.33 400.139 310.33 396.581H310.33Z" fill="#F2CB05"/>
<path d="M286.739 426.579C286.537 426.579 286.344 426.535 286.201 426.456C286.058 426.378 285.978 426.271 285.978 426.16V388.787C285.978 388.676 286.058 388.569 286.201 388.49C286.344 388.412 286.537 388.368 286.739 388.368C286.941 388.368 287.135 388.412 287.277 388.49C287.42 388.569 287.5 388.676 287.5 388.787V426.16C287.5 426.271 287.42 426.378 287.277 426.456C287.135 426.535 286.941 426.579 286.739 426.579Z" fill="#1F1F1F"/>
<path d="M286.739 394.914C286.589 394.914 286.442 394.889 286.316 394.843C286.191 394.797 286.094 394.732 286.036 394.655C285.979 394.578 285.964 394.494 285.993 394.413C286.022 394.332 286.095 394.257 286.201 394.198L296.153 388.715C296.296 388.636 296.489 388.592 296.691 388.592C296.893 388.592 297.087 388.636 297.229 388.715C297.372 388.794 297.452 388.9 297.452 389.012C297.452 389.123 297.372 389.229 297.229 389.308L287.277 394.791C287.207 394.83 287.123 394.861 287.03 394.882C286.938 394.903 286.839 394.914 286.739 394.914Z" fill="#1F1F1F"/>
<path d="M705.286 396.581C705.286 389.177 694.383 371.606 680.934 371.606C667.485 371.606 656.582 389.177 656.582 396.581C656.582 400.139 659.148 403.552 663.715 406.068C668.282 408.584 674.476 409.997 680.934 409.997C687.393 409.997 693.587 408.584 698.154 406.068C702.721 403.552 705.286 400.139 705.286 396.581H705.286Z" fill="#1F1F1F"/>
<path d="M699.198 396.581C699.198 389.177 688.295 371.606 674.846 371.606C661.397 371.606 650.494 389.177 650.494 396.581C650.494 400.139 653.06 403.552 657.627 406.068C662.194 408.584 668.388 409.997 674.846 409.997C681.305 409.997 687.499 408.584 692.066 406.068C696.633 403.552 699.198 400.139 699.198 396.581H699.198Z" fill="#F2CB05"/>
<path d="M675.607 426.579C675.406 426.579 675.212 426.535 675.069 426.456C674.927 426.378 674.846 426.271 674.846 426.16V388.787C674.846 388.676 674.927 388.569 675.069 388.49C675.212 388.412 675.406 388.368 675.607 388.368C675.809 388.368 676.003 388.412 676.145 388.49C676.288 388.569 676.368 388.676 676.368 388.787V426.16C676.368 426.271 676.288 426.378 676.145 426.456C676.003 426.535 675.809 426.579 675.607 426.579Z" fill="#1F1F1F"/>
<path d="M675.607 394.914C675.457 394.914 675.31 394.889 675.185 394.843C675.059 394.797 674.962 394.732 674.904 394.655C674.847 394.578 674.832 394.494 674.861 394.413C674.89 394.332 674.963 394.257 675.069 394.198L685.021 388.715C685.164 388.636 685.358 388.592 685.559 388.592C685.761 388.592 685.955 388.636 686.097 388.715C686.24 388.794 686.32 388.9 686.32 389.012C686.32 389.123 686.24 389.229 686.097 389.308L676.145 394.791C676.075 394.83 675.991 394.861 675.899 394.882C675.806 394.903 675.707 394.914 675.607 394.914V394.914Z" fill="#1F1F1F"/>
<path d="M590.893 410.352L586.812 408.242C586.755 408.213 586.71 408.178 586.679 408.139C586.647 408.1 586.63 408.058 586.629 408.016C586.627 407.973 586.641 407.931 586.67 407.891C586.699 407.852 586.741 407.816 586.796 407.785L587.629 407.32C587.728 407.265 587.86 407.232 588.001 407.226C588.141 407.221 588.281 407.244 588.393 407.291L591.813 408.731L593.947 405.88C594.032 405.767 594.157 405.665 594.315 405.581C594.474 405.496 594.662 405.43 594.869 405.387C595.075 405.344 595.296 405.324 595.516 405.33C595.737 405.336 595.953 405.366 596.152 405.42V405.42C596.464 405.503 596.719 405.64 596.879 405.81C597.038 405.98 597.093 406.174 597.035 406.363C596.648 407.66 594.302 409.375 592.938 410.281C592.752 410.405 592.5 410.494 592.219 410.535C591.937 410.577 591.639 410.569 591.366 410.514C591.19 410.478 591.03 410.423 590.893 410.352V410.352Z" fill="#F29F05"/>
<path d="M695.031 425.831C695.034 423.924 696.411 422.095 698.861 420.746C701.31 419.398 704.631 418.64 708.094 418.64C711.557 418.64 714.878 419.398 717.327 420.746C719.777 422.095 721.154 423.924 721.157 425.831" fill="#1F1F1F"/>
<path d="M708.094 425.831C708.001 425.831 707.911 425.811 707.845 425.774C707.778 425.738 707.741 425.688 707.741 425.637V421.844C707.741 421.792 707.778 421.743 707.845 421.706C707.911 421.67 708.001 421.649 708.094 421.649C708.188 421.649 708.278 421.67 708.344 421.706C708.41 421.743 708.447 421.792 708.447 421.844V425.637C708.447 425.688 708.41 425.738 708.344 425.774C708.278 425.811 708.188 425.831 708.094 425.831V425.831Z" fill="#1D594E"/>
<path d="M708.094 424.528C708.01 424.528 707.928 424.512 707.864 424.481L703.628 422.478C703.592 422.461 703.563 422.441 703.541 422.418C703.52 422.395 703.507 422.371 703.503 422.345C703.5 422.319 703.505 422.294 703.519 422.269C703.534 422.245 703.557 422.222 703.587 422.203C703.618 422.183 703.655 422.167 703.696 422.156C703.738 422.144 703.783 422.137 703.83 422.135C703.876 422.133 703.923 422.137 703.967 422.145C704.012 422.153 704.052 422.166 704.087 422.183L708.324 424.186C708.379 424.212 708.418 424.246 708.436 424.285C708.454 424.323 708.45 424.364 708.425 424.401C708.4 424.439 708.355 424.471 708.296 424.493C708.236 424.516 708.166 424.528 708.094 424.528L708.094 424.528Z" fill="#1D594E"/>
<path d="M735.279 425.831C735.281 423.924 736.659 422.095 739.108 420.746C741.558 419.398 744.879 418.64 748.342 418.64C751.804 418.64 755.125 419.398 757.575 420.746C760.024 422.095 761.402 423.924 761.404 425.831" fill="#1F1F1F"/>
<path d="M748.341 425.831C748.248 425.831 748.158 425.811 748.092 425.774C748.026 425.738 747.988 425.688 747.988 425.637V421.844C747.988 421.792 748.026 421.743 748.092 421.706C748.158 421.67 748.248 421.649 748.341 421.649C748.435 421.649 748.525 421.67 748.591 421.706C748.657 421.743 748.694 421.792 748.694 421.844V425.637C748.694 425.688 748.657 425.738 748.591 425.774C748.525 425.811 748.435 425.831 748.341 425.831V425.831Z" fill="#1D594E"/>
<path d="M748.341 424.528C748.257 424.528 748.176 424.511 748.112 424.481L743.875 422.478C743.839 422.461 743.81 422.441 743.788 422.418C743.767 422.395 743.754 422.37 743.75 422.344C743.747 422.319 743.752 422.293 743.767 422.269C743.781 422.244 743.804 422.222 743.834 422.202C743.865 422.183 743.902 422.167 743.944 422.155C743.985 422.143 744.031 422.137 744.077 422.135C744.124 422.133 744.17 422.136 744.215 422.144C744.259 422.153 744.3 422.166 744.335 422.182L748.572 424.186C748.626 424.212 748.665 424.246 748.683 424.285C748.702 424.323 748.698 424.364 748.673 424.401C748.648 424.438 748.602 424.47 748.543 424.493C748.484 424.516 748.414 424.528 748.341 424.528V424.528Z" fill="#1D594E"/>
<path d="M397.074 414.178C397.276 414.178 397.47 414.134 397.612 414.055C397.755 413.977 397.835 413.87 397.835 413.759C397.835 413.648 397.755 413.541 397.612 413.463C397.47 413.384 397.276 413.34 397.074 413.34H389.845V411.663H397.074C397.276 411.663 397.47 411.619 397.612 411.54C397.755 411.461 397.835 411.355 397.835 411.243C397.835 411.132 397.755 411.026 397.612 410.947C397.47 410.868 397.276 410.824 397.074 410.824H335.434C335.232 410.824 335.038 410.868 334.896 410.947C334.753 411.026 334.673 411.132 334.673 411.243C334.673 411.355 334.753 411.461 334.896 411.54C335.038 411.619 335.232 411.663 335.434 411.663H342.663V413.34H335.434C335.232 413.34 335.038 413.384 334.896 413.463C334.753 413.541 334.673 413.648 334.673 413.759C334.673 413.87 334.753 413.977 334.896 414.055C335.038 414.134 335.232 414.178 335.434 414.178H342.663V415.855H335.434C335.232 415.855 335.038 415.899 334.896 415.978C334.753 416.057 334.673 416.163 334.673 416.275C334.673 416.386 334.753 416.492 334.896 416.571C335.038 416.65 335.232 416.694 335.434 416.694H342.663V418.371H336.195C335.791 418.371 335.404 418.459 335.119 418.616C334.833 418.774 334.673 418.987 334.673 419.209C334.673 419.432 334.833 419.645 335.119 419.802C335.404 419.96 335.791 420.048 336.195 420.048H342.353C342.308 420.115 342.284 420.186 342.283 420.258V426.127C342.283 426.294 342.403 426.454 342.617 426.572C342.831 426.69 343.121 426.756 343.424 426.756C343.727 426.756 344.017 426.69 344.231 426.572C344.445 426.454 344.566 426.294 344.566 426.127V420.258C344.564 420.186 344.541 420.115 344.496 420.048H388.012C387.967 420.115 387.944 420.186 387.942 420.258V426.127C387.942 426.294 388.063 426.454 388.277 426.572C388.491 426.69 388.781 426.756 389.084 426.756C389.387 426.756 389.677 426.69 389.891 426.572C390.105 426.454 390.225 426.294 390.225 426.127V420.258C390.224 420.186 390.2 420.115 390.156 420.048H396.313C396.717 420.048 397.104 419.96 397.39 419.802C397.675 419.645 397.835 419.432 397.835 419.209C397.835 418.987 397.675 418.774 397.39 418.616C397.104 418.459 396.717 418.371 396.313 418.371H389.845V416.694H397.074C397.276 416.694 397.47 416.65 397.612 416.571C397.755 416.492 397.835 416.386 397.835 416.275C397.835 416.163 397.755 416.057 397.612 415.978C397.47 415.899 397.276 415.855 397.074 415.855H389.845V414.178H397.074ZM344.185 411.663H388.323V413.34H344.185V411.663ZM388.323 418.371H344.185V416.694H388.323V418.371ZM388.323 415.855H344.185V414.178H388.323V415.855Z" fill="#1F1F1F"/>
<path d="M496.774 396.581C496.774 389.177 485.871 371.606 472.422 371.606C458.973 371.606 448.07 389.177 448.07 396.581C448.07 400.139 450.636 403.552 455.202 406.068C459.769 408.584 465.963 409.997 472.422 409.997C478.88 409.997 485.074 408.584 489.641 406.068C494.208 403.552 496.774 400.139 496.774 396.581H496.774Z" fill="#1F1F1F"/>
<path d="M490.686 396.581C490.686 389.177 479.783 371.606 466.334 371.606C452.885 371.606 441.982 389.177 441.982 396.581C441.982 400.139 444.548 403.552 449.115 406.068C453.681 408.584 459.875 409.997 466.334 409.997C472.792 409.997 478.986 408.584 483.553 406.068C488.12 403.552 490.686 400.139 490.686 396.581H490.686Z" fill="#F2CB05"/>
<path d="M467.095 426.579C466.893 426.579 466.699 426.535 466.557 426.456C466.414 426.378 466.334 426.271 466.334 426.16V388.787C466.334 388.676 466.414 388.569 466.557 388.49C466.699 388.412 466.893 388.368 467.095 388.368C467.297 388.368 467.49 388.412 467.633 388.49C467.776 388.569 467.856 388.676 467.856 388.787V426.16C467.856 426.271 467.776 426.378 467.633 426.456C467.49 426.535 467.297 426.579 467.095 426.579Z" fill="#1F1F1F"/>
<path d="M467.095 394.914C466.944 394.914 466.797 394.889 466.672 394.843C466.547 394.797 466.449 394.732 466.392 394.655C466.334 394.578 466.319 394.494 466.349 394.413C466.378 394.332 466.45 394.257 466.557 394.198L476.509 388.715C476.651 388.636 476.845 388.592 477.047 388.592C477.249 388.592 477.442 388.636 477.585 388.715C477.728 388.794 477.808 388.9 477.808 389.012C477.808 389.123 477.728 389.229 477.585 389.308L467.633 394.791C467.562 394.83 467.478 394.861 467.386 394.882C467.294 394.903 467.195 394.914 467.095 394.914Z" fill="#1F1F1F"/>
</svg>
